<?xml version="1.0" encoding="UTF-8" standalone="no"?>
<!-- Created with Inkscape (http://www.inkscape.org/) -->

<svg
   width="56.35603mm"
   height="11.906mm"
   viewBox="0 0 56.356029 11.906"
   version="1.1"
   id="svg5"
   sodipodi:docname="borderv3.svg"
   inkscape:version="1.1.2 (b8e25be833, 2022-02-05)"
   xmlns:inkscape="http://www.inkscape.org/namespaces/inkscape"
   xmlns:sodipodi="http://sodipodi.sourceforge.net/DTD/sodipodi-0.dtd"
   xmlns="http://www.w3.org/2000/svg"
   xmlns:svg="http://www.w3.org/2000/svg">
  <sodipodi:namedview
     id="namedview7"
     pagecolor="#505050"
     bordercolor="#ffffff"
     borderopacity="1"
     inkscape:pageshadow="0"
     inkscape:pageopacity="0"
     inkscape:pagecheckerboard="1"
     inkscape:document-units="mm"
     showgrid="false"
     fit-margin-top="0"
     fit-margin-left="0"
     fit-margin-right="0"
     fit-margin-bottom="0"
     inkscape:zoom="2.8436027"
     inkscape:cx="50.639986"
     inkscape:cy="-53.980818"
     inkscape:window-width="1920"
     inkscape:window-height="991"
     inkscape:window-x="-9"
     inkscape:window-y="-9"
     inkscape:window-maximized="1"
     inkscape:current-layer="layer1" />
  <defs
     id="defs2" />
  <g
     inkscape:label="Capa 1"
     inkscape:groupmode="layer"
     id="layer1"
     transform="translate(-2.3353613,-4.3581888)">
    <path
       style="fill:#000000;stroke-width:0.264583"
       d="M 2.3353613,10.311319 V 4.3581888 H 14.241361 V 16.264189 H 2.3353613 v -5.95359 z m 5.5562497,4.10078 c 0,-0.67855 -0.1056,-0.80032 -0.72761,-0.83901 -0.40018,-0.0249 -0.9062,-0.0718 -1.12448,-0.10416 -0.2182797,-0.0324 -0.5456997,-0.0716 -0.7275997,-0.087 -0.21674,-0.0184 -0.33073,-0.48409 -0.33073,-1.35104 v -1.32291 h -0.92604 -0.92604 v 2.24895 2.24896 h 2.38125 2.3812497 z m 5.55625,-1.45521 v -2.24895 h -0.91222 -0.91221 l -0.08,1.3794 -0.08,1.3794 -1.32292,0.0273 c -1.2864203,0.0265 -1.3252003,0.0505 -1.4058203,0.86956 l -0.0829,0.8423 h 2.3980103 2.39802 z m -5.55625,-1.32291 c 0,-0.88195 -0.0441,-0.92604 -0.92605,-0.92604 -0.88194,0 -0.92604,0.0441 -0.92604,0.92604 0,0.88194 0.0441,0.92604 0.92604,0.92604 0.88195,0 0.92605,-0.0441 0.92605,-0.92604 z m 2.64583,0 c 0,-0.88195 -0.0441,-0.92604 -0.9260403,-0.92604 -0.88195,0 -0.92604,0.0441 -0.92604,0.92604 0,0.88194 0.0441,0.92604 0.92604,0.92604 0.8819403,0 0.9260403,-0.0441 0.9260403,-0.92604 z M 5.1134813,8.3932588 v -1.2572 l 1.3890597,-0.08 1.38907,-0.08 v -0.91221 -0.91221 h -2.3812497 -2.38125 v 2.24895 2.24896 l 0.99218,5.3e-4 0.99219,5.3e-4 v -1.2572 z m 2.7781297,0.46259 c 0,-0.73075 -0.0735,-0.79375 -0.92605,-0.79375 -0.85254,0 -0.92604,0.063 -0.92604,0.79375 0,0.73075 0.0735,0.79375 0.92604,0.79375 0.85255,0 0.92605,-0.063 0.92605,-0.79375 z m 2.64583,0 c 0,-0.73075 -0.0735,-0.79375 -0.9260403,-0.79375 -0.85255,0 -0.92604,0.063 -0.92604,0.79375 0,0.73075 0.0735,0.79375 0.92604,0.79375 0.8525403,0 0.9260403,-0.063 0.9260403,-0.79375 z m 2.91042,-1.45521 v -2.24895 h -2.38125 -2.3812503 v 0.92604 0.92604 h 1.4751503 c 1.44449,0 1.47415,0.0151 1.42717,0.7276 -0.11738,1.78008 -0.0501,1.91823 0.93413,1.91823 h 0.92605 z"
       id="path854"
       sodipodi:nodetypes="cccccccssccscccccccscccccccsccccssssssssssccccccccccccccssssssssssccccccssscc" />
    <path
       style="fill:#000000;stroke-width:0.264583"
       d="M 13.447864,10.311319 V 4.3581888 H 25.353868 V 16.264189 H 13.447864 v -5.95359 z m 5.556253,4.10078 c 0,-0.67855 -0.1056,-0.80032 -0.727611,-0.83901 -0.40018,-0.0249 -0.9062,-0.0718 -1.12448,-0.10416 -0.21828,-0.0324 -0.5457,-0.0716 -0.7276,-0.087 -0.216741,-0.0184 -0.330731,-0.48409 -0.330731,-1.35104 v -1.32291 h -0.92604 -0.926041 v 2.24895 2.24896 h 2.381252 2.381251 z m 5.556251,-1.45521 v -2.24895 h -0.91222 -0.91221 l -0.08,1.3794 -0.08,1.3794 -1.32292,0.0273 c -1.286421,0.0265 -1.325201,0.0505 -1.405821,0.86956 l -0.0829,0.8423 h 2.398011 2.39802 z m -5.556251,-1.32291 c 0,-0.88195 -0.0441,-0.92604 -0.926051,-0.92604 -0.88194,0 -0.92604,0.0441 -0.92604,0.92604 0,0.88194 0.0441,0.92604 0.92604,0.92604 0.881951,0 0.926051,-0.0441 0.926051,-0.92604 z m 2.645831,0 c 0,-0.88195 -0.0441,-0.92604 -0.92604,-0.92604 -0.881951,0 -0.926041,0.0441 -0.926041,0.92604 0,0.88194 0.0441,0.92604 0.926041,0.92604 0.88194,0 0.92604,-0.0441 0.92604,-0.92604 z M 16.225985,8.3932588 v -1.2572 l 1.389061,-0.08 1.389071,-0.08 v -0.91221 -0.91221 h -2.381251 -2.381252 v 2.24895 2.2489604 l 0.992181,5.3e-4 0.99219,5.3e-4 V 8.3934088 Z m 2.778132,0.46259 c 0,-0.73075 -0.0735,-0.79375 -0.926051,-0.79375 -0.85254,0 -0.92604,0.063 -0.92604,0.79375 0,0.73075 0.0735,0.7937504 0.92604,0.7937504 0.852551,0 0.926051,-0.063 0.926051,-0.7937504 z m 2.645831,0 c 0,-0.73075 -0.0735,-0.79375 -0.92604,-0.79375 -0.852551,0 -0.926041,0.063 -0.926041,0.79375 0,0.73075 0.0735,0.7937504 0.926041,0.7937504 0.85254,0 0.92604,-0.063 0.92604,-0.7937504 z m 2.91042,-1.45521 v -2.24895 h -2.38125 -2.381251 v 0.92604 0.92604 h 1.475151 c 1.44449,0 1.47415,0.0151 1.42717,0.7276 -0.11738,1.78008 -0.0501,1.9182304 0.93413,1.9182304 h 0.92605 z"
       id="path854-0"
       sodipodi:nodetypes="cccccccssccscccccccscccccccsccccssssssssssccccccccccccccssssssssssccccccssscc" />
    <path
       style="fill:#000000;stroke-width:0.264583"
       d="M 24.560371,10.311319 V 4.3581891 H 36.466375 V 16.264189 H 24.560371 v -5.95359 z m 5.556253,4.10078 c 0,-0.67855 -0.1056,-0.80032 -0.727611,-0.83901 -0.40018,-0.0249 -0.9062,-0.0718 -1.12448,-0.10416 -0.21828,-0.0324 -0.5457,-0.0716 -0.7276,-0.087 -0.216741,-0.0184 -0.330731,-0.48409 -0.330731,-1.35104 v -1.32291 h -0.92604 -0.926041 v 2.24895 2.24896 h 2.381252 2.381251 z m 5.556251,-1.45521 v -2.24895 h -0.91222 -0.91221 l -0.08,1.3794 -0.08,1.3794 -1.32292,0.0273 c -1.286421,0.0265 -1.325201,0.0505 -1.405821,0.86956 l -0.0829,0.8423 h 2.398011 2.39802 z m -5.556251,-1.32291 c 0,-0.88195 -0.0441,-0.92604 -0.926051,-0.92604 -0.88194,0 -0.92604,0.0441 -0.92604,0.92604 0,0.88194 0.0441,0.92604 0.92604,0.92604 0.881951,0 0.926051,-0.0441 0.926051,-0.92604 z m 2.645831,0 c 0,-0.88195 -0.0441,-0.92604 -0.92604,-0.92604 -0.881951,0 -0.926041,0.0441 -0.926041,0.92604 0,0.88194 0.0441,0.92604 0.926041,0.92604 0.88194,0 0.92604,-0.0441 0.92604,-0.92604 z m -5.423963,-3.24072 v -1.2572 l 1.389061,-0.08 1.389071,-0.08 v -0.91221 -0.91221 h -2.381251 -2.381252 v 2.24895 2.24896 l 0.992181,5.3e-4 0.99219,5.3e-4 v -1.2572 z m 2.778132,0.46259 c 0,-0.73075 -0.0735,-0.79375 -0.926051,-0.79375 -0.85254,0 -0.92604,0.063 -0.92604,0.79375 0,0.73075 0.0735,0.793751 0.92604,0.793751 0.852551,0 0.926051,-0.063 0.926051,-0.793751 z m 2.645831,0 c 0,-0.73075 -0.0735,-0.79375 -0.92604,-0.79375 -0.852551,0 -0.926041,0.063 -0.926041,0.79375 0,0.73075 0.0735,0.793751 0.926041,0.793751 0.85254,0 0.92604,-0.063 0.92604,-0.793751 z m 2.91042,-1.45521 v -2.24895 h -2.38125 -2.381251 v 0.92604 0.92604 h 1.475151 c 1.44449,0 1.47415,0.0151 1.42717,0.7276 -0.11738,1.78008 -0.0501,1.918231 0.93413,1.918231 h 0.92605 z"
       id="path854-0-3"
       sodipodi:nodetypes="cccccccssccscccccccscccccccsccccssssssssssccccccccccccccssssssssssccccccssscc" />
    <path
       style="fill:#000000;stroke-width:0.264583"
       d="m 35.672878,10.311319 v -5.95313 h 11.906004 v 11.906 H 35.672878 v -5.95359 z m 5.556253,4.10078 c 0,-0.67855 -0.1056,-0.80032 -0.727611,-0.83901 -0.40018,-0.0249 -0.9062,-0.0718 -1.12448,-0.10416 -0.21828,-0.0324 -0.5457,-0.0716 -0.7276,-0.087 -0.216741,-0.0184 -0.330731,-0.48409 -0.330731,-1.35104 v -1.32291 h -0.92604 -0.926041 v 2.24895 2.24896 h 2.381252 2.381251 z m 5.556251,-1.45521 v -2.24895 h -0.91222 -0.91221 l -0.08,1.3794 -0.08,1.3794 -1.32292,0.0273 c -1.286421,0.0265 -1.325201,0.0505 -1.405821,0.86956 l -0.0829,0.8423 h 2.398011 2.39802 z m -5.556251,-1.32291 c 0,-0.88195 -0.0441,-0.92604 -0.926051,-0.92604 -0.88194,0 -0.92604,0.0441 -0.92604,0.92604 0,0.88194 0.0441,0.92604 0.92604,0.92604 0.881951,0 0.926051,-0.0441 0.926051,-0.92604 z m 2.645831,0 c 0,-0.88195 -0.0441,-0.92604 -0.92604,-0.92604 -0.881951,0 -0.926041,0.0441 -0.926041,0.92604 0,0.88194 0.0441,0.92604 0.926041,0.92604 0.88194,0 0.92604,-0.0441 0.92604,-0.92604 z m -5.423963,-3.24072 v -1.2572 l 1.389061,-0.08 1.389071,-0.08 V 6.063849 5.151639 H 38.84788 36.466628 v 2.24895 2.24896 l 0.992181,5.3e-4 0.99219,5.3e-4 v -1.2572 z m 2.778132,0.46259 c 0,-0.73075 -0.0735,-0.79375 -0.926051,-0.79375 -0.85254,0 -0.92604,0.063 -0.92604,0.79375 0,0.73075 0.0735,0.793751 0.92604,0.793751 0.852551,0 0.926051,-0.063 0.926051,-0.793751 z m 2.645831,0 c 0,-0.73075 -0.0735,-0.79375 -0.92604,-0.79375 -0.852551,0 -0.926041,0.063 -0.926041,0.79375 0,0.73075 0.0735,0.793751 0.926041,0.793751 0.85254,0 0.92604,-0.063 0.92604,-0.793751 z m 2.91042,-1.45521 v -2.24895 h -2.38125 -2.381251 v 0.92604 0.92604 h 1.475151 c 1.44449,0 1.47415,0.0151 1.42717,0.7276 -0.11738,1.78008 -0.0501,1.918231 0.93413,1.918231 h 0.92605 z"
       id="path854-0-3-5"
       sodipodi:nodetypes="cccccccssccscccccccscccccccsccccssssssssssccccccccccccccssssssssssccccccssscc" />
    <path
       style="fill:#000000;stroke-width:0.264583"
       d="m 46.785385,10.311319 v -5.95313 h 11.906004 v 11.906 H 46.785385 v -5.95359 z m 5.556253,4.10078 c 0,-0.67855 -0.1056,-0.80032 -0.727611,-0.83901 -0.40018,-0.0249 -0.9062,-0.0718 -1.12448,-0.10416 -0.21828,-0.0324 -0.5457,-0.0716 -0.7276,-0.087 -0.216741,-0.0184 -0.330731,-0.48409 -0.330731,-1.35104 v -1.32291 h -0.92604 -0.926041 v 2.24895 2.24896 h 2.381252 2.381251 z m 5.556251,-1.45521 v -2.24895 h -0.91222 -0.91221 l -0.08,1.3794 -0.08,1.3794 -1.32292,0.0273 c -1.286421,0.0265 -1.325201,0.0505 -1.405821,0.86956 l -0.0829,0.8423 h 2.398011 2.39802 z m -5.556251,-1.32291 c 0,-0.88195 -0.0441,-0.92604 -0.926051,-0.92604 -0.88194,0 -0.92604,0.0441 -0.92604,0.92604 0,0.88194 0.0441,0.92604 0.92604,0.92604 0.881951,0 0.926051,-0.0441 0.926051,-0.92604 z m 2.645831,0 c 0,-0.88195 -0.0441,-0.92604 -0.92604,-0.92604 -0.881951,0 -0.926041,0.0441 -0.926041,0.92604 0,0.88194 0.0441,0.92604 0.926041,0.92604 0.88194,0 0.92604,-0.0441 0.92604,-0.92604 z m -5.423963,-3.24072 v -1.2572 l 1.389061,-0.08 1.389071,-0.08 v -0.91221 -0.91221 h -2.381251 -2.381252 v 2.24895 2.24896 l 0.992181,5.3e-4 0.99219,5.3e-4 v -1.2572 z m 2.778132,0.46259 c 0,-0.73075 -0.0735,-0.79375 -0.926051,-0.79375 -0.85254,0 -0.92604,0.063 -0.92604,0.79375 0,0.73075 0.0735,0.793751 0.92604,0.793751 0.852551,0 0.926051,-0.063 0.926051,-0.793751 z m 2.645831,0 c 0,-0.73075 -0.0735,-0.79375 -0.92604,-0.79375 -0.852551,0 -0.926041,0.063 -0.926041,0.79375 0,0.73075 0.0735,0.793751 0.926041,0.793751 0.85254,0 0.92604,-0.063 0.92604,-0.793751 z m 2.91042,-1.45521 v -2.24895 h -2.38125 -2.381251 v 0.92604 0.92604 h 1.475151 c 1.44449,0 1.47415,0.0151 1.42717,0.7276 -0.11738,1.78008 -0.0501,1.918231 0.93413,1.918231 h 0.92605 z"
       id="path854-0-3-5-8"
       sodipodi:nodetypes="cccccccssccscccccccscccccccsccccssssssssssccccccccccccccssssssssssccccccssscc" />
  </g>
</svg>
