<?xml version="1.0" encoding="UTF-8" standalone="no"?>
<!-- Created with Inkscape (http://www.inkscape.org/) -->

<svg
   width="43.920856mm"
   height="43.920849mm"
   viewBox="0 0 43.920856 43.920849"
   version="1.1"
   id="svg2961"
   sodipodi:docname="borderv6.svg"
   inkscape:version="1.1.2 (b8e25be833, 2022-02-05)"
   xmlns:inkscape="http://www.inkscape.org/namespaces/inkscape"
   xmlns:sodipodi="http://sodipodi.sourceforge.net/DTD/sodipodi-0.dtd"
   xmlns="http://www.w3.org/2000/svg"
   xmlns:svg="http://www.w3.org/2000/svg">
  <sodipodi:namedview
     id="namedview2963"
     pagecolor="#505050"
     bordercolor="#ffffff"
     borderopacity="1"
     inkscape:pageshadow="0"
     inkscape:pageopacity="0"
     inkscape:pagecheckerboard="1"
     inkscape:document-units="mm"
     showgrid="false"
     inkscape:zoom="0.71090067"
     inkscape:cx="248.97993"
     inkscape:cy="304.54325"
     inkscape:window-width="1920"
     inkscape:window-height="991"
     inkscape:window-x="-9"
     inkscape:window-y="-9"
     inkscape:window-maximized="1"
     inkscape:current-layer="layer1"
     fit-margin-top="0"
     fit-margin-left="0"
     fit-margin-right="0"
     fit-margin-bottom="0" />
  <defs
     id="defs2958" />
  <g
     inkscape:label="Capa 1"
     inkscape:groupmode="layer"
     id="layer1"
     transform="translate(-38.704985,-7.0696507)">
    <path
       d="m 38.705024,48.34463 v -2.645831 h 0.81579 c 1.012291,0 0.921459,-0.623239 -0.10859,-0.74518 l -0.7072,-0.0837 v -2.485271 -2.48526 l 2.18281,-0.0769 2.18281,-0.0768 0.0782,-1.78593 c 0.0643,-1.468321 0.006,-1.78594 -0.330732,-1.78594 -0.319328,0 -0.408969,0.318961 -0.408969,1.455209 v 1.455211 h -1.85208 -1.852078 V 37.232151 35.38007 h 1.455197 c 1.117132,0 1.455211,-0.0922 1.455211,-0.39688 0,-0.30467 -0.338079,-0.39687 -1.455211,-0.39687 h -1.455197 v -5.55625 -5.55625 h 1.455197 c 1.117132,0 1.455211,-0.0922 1.455211,-0.39688 0,-0.30467 -0.338079,-0.39687 -1.455211,-0.39687 h -1.455197 v -1.85208 -1.852089 h 1.852078 1.85208 v 1.455208 c 0,1.117132 0.0922,1.455211 0.396881,1.455211 0.314981,0 0.396869,-0.38218 0.396869,-1.85208 V 18.182151 H 40.953932 38.704985 V 15.53632 12.890489 h 0.79375 c 0.436559,0 0.79375,-0.11907 0.79375,-0.264588 0,-0.145521 -0.357191,-0.264581 -0.79375,-0.264581 h -0.79375 V 9.7154893 7.0696507 h 2.645828 2.64583 V 7.731109 c 0,0.4115806 0.149932,0.661461 0.396881,0.661461 0.24694,0 0.396869,-0.2498804 0.396869,-0.661461 V 7.0696507 h 2.645842 2.645828 V 9.318609 11.56757 h 1.719792 c 1.35232,0 1.719789,-0.0848 1.719789,-0.39688 0,-0.304671 -0.33808,-0.39687 -1.455211,-0.39687 H 50.611235 V 8.9217393 7.0696507 h 1.852078 1.852081 V 8.524859 c 0,1.1171317 0.0922,1.455211 0.39688,1.455211 0.30467,0 0.39687,-0.3380793 0.39687,-1.455211 V 7.0696507 h 5.55625 5.55625 V 8.524859 c 0,1.1171317 0.0922,1.455211 0.39688,1.455211 0.30467,0 0.39687,-0.3380793 0.39687,-1.455211 V 7.0696507 h 1.852091 1.852078 V 8.9217393 10.77382 h -1.455208 c -1.117132,0 -1.455211,0.0922 -1.455211,0.39687 0,0.314989 0.38218,0.39688 1.852091,0.39688 h 1.852078 V 9.318609 7.0696507 h 2.645831 2.645841 V 7.731109 c 0,0.3637995 0.11906,0.661461 0.264578,0.661461 0.145521,0 0.264581,-0.2976615 0.264581,-0.661461 V 7.0696507 h 2.645841 2.645828 V 9.7154893 12.36132 h -0.661458 c -0.3638,0 -0.661461,0.11906 -0.661461,0.264581 0,0.145518 0.297661,0.264588 0.661461,0.264588 0.661278,0 0.661458,7.94e-4 0.661458,2.635131 v 2.635129 l -2.18281,0.0769 -2.18282,0.0768 -0.0782,1.78594 c -0.0643,1.468318 -0.005,1.78594 0.330729,1.78594 0.319321,0 0.408959,-0.318961 0.408959,-1.455211 v -1.455211 h 1.852091 1.852081 v 1.852091 1.852081 h -1.455211 c -1.117129,0 -1.455211,0.0922 -1.455211,0.39687 0,0.304678 0.338082,0.39688 1.455211,0.39688 h 1.455211 v 5.55625 5.55625 h -1.455211 c -1.117129,0 -1.455211,0.0922 -1.455211,0.39687 0,0.304678 0.338082,0.39688 1.455211,0.39688 h 1.455211 v 1.852078 1.852091 h -1.852081 -1.852091 v -1.455211 c 0,-1.13625 -0.0896,-1.455208 -0.408959,-1.455208 -0.33623,0 -0.395049,0.317619 -0.330729,1.78594 l 0.0782,1.78593 2.18282,0.0768 2.18281,0.0769 v 2.635131 c 0,2.634419 -1.8e-4,2.635128 -0.661458,2.635128 -0.3638,0 -0.661461,0.11907 -0.661461,0.264591 0,0.145521 0.297661,0.264581 0.661461,0.264581 h 0.661458 v 2.645828 2.645841 h -2.645828 -2.645841 v -0.79375 c 0,-0.43657 -0.11906,-0.79375 -0.264581,-0.79375 -0.145518,0 -0.264578,0.35718 -0.264578,0.79375 v 0.79375 h -2.645841 -2.645831 v -2.24896 -2.248958 h -1.852078 c -1.469911,0 -1.852091,0.0819 -1.852091,0.39687 0,0.304678 0.338079,0.39688 1.455211,0.39688 h 1.455208 v 1.852078 1.852091 h -1.852078 -1.852091 v -1.455211 c 0,-1.117129 -0.0922,-1.455208 -0.39687,-1.455208 -0.304681,0 -0.39688,0.338079 -0.39688,1.455208 V 50.9905 h -5.55625 -5.55625 v -1.455211 c 0,-1.117129 -0.0922,-1.455208 -0.39687,-1.455208 -0.304681,0 -0.39688,0.338079 -0.39688,1.455208 V 50.9905 h -1.852081 -1.852078 v -1.852091 -1.852078 h 1.455198 c 1.117131,0 1.455211,-0.0922 1.455211,-0.39688 0,-0.312071 -0.367469,-0.39687 -1.719789,-0.39687 h -1.719792 v 2.248958 2.248961 h -2.62826 -2.62826 l -0.0837,-0.707199 C 44.619904,49.253241 43.996664,49.162409 43.996664,50.1747 v 0.8158 h -2.64583 -2.645831 z m 4.497909,1.455211 c 0,-0.304671 -0.338079,-0.39687 -1.455208,-0.39687 H 40.292524 V 47.94776 c 0,-1.117129 -0.0922,-1.455211 -0.39688,-1.455211 -0.314981,0 -0.39687,0.38217 -0.39687,1.852081 v 1.852091 h 1.852078 c 1.469912,0 1.852081,-0.0819 1.852081,-0.39688 z m 6.08542,-1.852081 v -2.248961 h 2.49597 2.495971 l 0.0837,0.727602 c 0.0658,0.5715 0.23984,0.745569 0.811329,0.811329 0.6942,0.0799 0.727599,0.149709 0.727599,1.521351 v 1.43764 h 4.7625 4.7625 V 48.74151 c 0,-1.440511 0.008,-1.455211 0.79375,-1.455211 0.705562,0 0.79375,-0.0882 0.79375,-0.79375 v -0.79375 h 2.645841 2.645831 v 2.248961 2.248961 h 1.874128 c 1.381101,0 1.845432,-0.087 1.765041,-0.330732 -0.0658,-0.199339 -0.70521,-0.362259 -1.60955,-0.41008 l -1.50045,-0.0794 v -1.838881 -1.83888 h 1.5875 1.5875 v -0.79375 c 0,-0.67028 0.102891,-0.79375 0.66145,-0.79375 0.62538,0 0.661459,-0.0794 0.661459,-1.455208 v -1.455211 h 1.98438 1.98437 v 1.455211 c 0,0.800369 0.11907,1.455208 0.264591,1.455208 0.150209,0 0.264761,-0.77198 0.264999,-1.78594 l 5.29e-4,-1.78594 H 79.6498 77.466569 l -0.0757,-2.57968 -0.0757,-2.57969 H 78.1185 c 0.716201,0 0.803331,-0.0861 0.803331,-0.79375 0,-0.785728 0.01471,-0.79375 1.455211,-0.79375 h 1.455208 v -4.7625 -4.7625 h -1.455208 c -1.440511,0 -1.455211,-0.008 -1.455211,-0.79375 0,-0.705559 -0.0882,-0.79375 -0.79375,-0.79375 h -0.79375 V 20.034171 17.38833 h 2.248961 2.248958 v -1.852081 c 0,-2.222958 -0.469509,-2.489708 -0.58211,-0.33073 l -0.0794,1.521349 h -1.852091 -1.852081 l -0.0794,-1.521349 c -0.0739,-1.416529 -0.124011,-1.521349 -0.727602,-1.521349 -0.511569,0 -0.648258,-0.136702 -0.648258,-0.64826 0,-0.603592 -0.10482,-0.65372 -1.521352,-0.727599 l -1.521355,-0.0793 V 10.376919 8.5248405 L 74.48996,8.4454395 C 76.648831,8.3328403 76.38208,7.8633292 74.159123,7.8633292 h -1.852081 v 2.2489608 2.248959 h -2.645828 -2.645839 v -0.79375 c 0,-0.70556 -0.0882,-0.79375 -0.79375,-0.79375 -0.78573,0 -0.79375,-0.01471 -0.79375,-1.4552088 v -1.455211 h -4.7625 -4.7625 v 1.455211 c 0,1.4405078 -0.008,1.4552088 -0.79375,1.4552088 -0.705551,0 -0.79375,0.0882 -0.79375,0.79375 v 0.79375 H 51.801834 49.288295 V 10.11229 7.8633292 h -1.852082 c -1.058338,0 -1.852088,0.1133899 -1.852088,0.2645913 0,0.1455182 0.654849,0.2645781 1.455208,0.2645781 h 1.455211 v 1.9843694 1.984381 h -1.455211 c -1.375831,0 -1.455208,0.0361 -1.455208,0.661461 0,0.558559 -0.123471,0.66146 -0.79375,0.66146 h -0.79375 v 1.5875 1.5875 h -1.838881 -1.83888 l -0.0794,-1.458261 c -0.11323,-2.081009 -0.592931,-1.940269 -0.686752,0.20148 l -0.0782,1.785941 h 2.261049 2.26104 v 2.628259 2.62826 l -0.727599,0.0837 c -0.571492,0.0658 -0.745572,0.239829 -0.811332,0.811329 -0.0799,0.6942 -0.149709,0.727601 -1.521349,0.727601 h -1.437632 v 4.7625 4.7625 h 1.437632 c 1.37164,0 1.441479,0.0334 1.521349,0.727599 0.0658,0.5715 0.23984,0.74557 0.811332,0.811332 l 0.727599,0.0837 v 2.62826 2.628262 h -2.26104 -2.261049 l 0.0782,1.722189 c 0.0976,2.149458 0.579753,2.37995 0.686753,0.328328 l 0.0794,-1.521359 h 1.83888 1.838881 v 1.461831 c 0,1.412578 0.0267,1.46717 0.79375,1.62057 0.614579,0.12291 0.79375,0.300588 0.79375,0.78713 0,0.585288 0.0998,0.628388 1.455208,0.628388 h 1.455211 v 1.852081 1.852091 h -1.455211 c -1.117129,0 -1.455208,0.0922 -1.455208,0.39687 0,0.314978 0.38218,0.39688 1.852088,0.39688 h 1.852082 z m 4.23333,1.19062 v -1.058331 h -1.05833 -1.058328 v 1.058331 1.058341 h 1.058328 1.05833 z m 16.40417,0 v -1.058331 h -1.058328 -1.058342 v 1.058331 1.058341 h 1.058342 1.058328 z m 11.90625,-0.79375 c 0,-1.058331 -0.11339,-1.852081 -0.264578,-1.852081 -0.145521,0 -0.264592,0.648901 -0.264592,1.442011 v 1.442 l -1.500449,0.0794 c -0.904341,0.0478 -1.543791,0.210741 -1.60955,0.410081 -0.0804,0.24372 0.383931,0.330729 1.76504,0.330729 h 1.874129 z m -38.62917,-0.79375 v -1.058331 h -1.058331 -1.058328 v 1.058331 1.058341 h 1.058328 1.058331 z m 1.53733,0.0866 c -0.117949,-1.39578 -0.74358,-1.487191 -0.74358,-0.10864 0,0.802521 0.10618,1.080381 0.412851,1.080381 0.314039,0 0.393189,-0.232571 0.330729,-0.97174 z m 2.960589,-0.0866 v -1.058331 h -1.058328 -1.058341 v 1.058331 1.058341 h 1.058341 1.058328 z m 28.310423,-0.01521 v -1.073549 l -1.124482,0.0814 c -1.09151,0.079 -1.12689,0.110461 -1.206598,1.073549 l -0.0821,0.99219 h 1.206598 1.2066 z m 1.322908,0.01521 c 0,-0.582081 -0.119059,-1.058331 -0.26458,-1.058331 -0.145518,0 -0.264578,0.47625 -0.264578,1.058331 0,0.582091 0.11906,1.058341 0.264578,1.058341 0.145521,0 0.26458,-0.47625 0.26458,-1.058341 z m 3.175,-0.01521 v -1.073549 l -1.124479,0.0814 c -1.091501,0.079 -1.126881,0.110461 -1.20659,1.073549 l -0.0821,0.99219 h 1.206601 1.20659 z m -37.30625,-2.23375 c 0,-0.286628 -0.293979,-0.39687 -1.058331,-0.39687 -0.764349,0 -1.058328,0.110242 -1.058328,0.39687 0,0.286642 0.293979,0.39688 1.058328,0.39688 0.764352,0 1.058331,-0.110238 1.058331,-0.39688 z m 1.53679,0.112451 c -0.0521,-0.15643 -0.20792,-0.284419 -0.34616,-0.284419 -0.13825,0 -0.294021,0.127989 -0.34617,0.284419 -0.0521,0.15644 0.103629,0.284429 0.34617,0.284429 0.242531,0 0.398309,-0.127989 0.34616,-0.284429 z m 32.59446,0.01979 c 0,-0.145519 -0.119059,-0.264589 -0.26458,-0.264589 -0.145518,0 -0.264578,0.11907 -0.264578,0.264589 0,0.14552 0.11906,0.26458 0.264578,0.26458 0.145521,0 0.26458,-0.11906 0.26458,-0.26458 z m 3.175,0.03 c 0,-0.272111 -1.56215,-0.54914 -2.050518,-0.36363 -0.726961,0.27614 -0.264022,0.59818 0.859899,0.59818 0.654841,0 1.190619,-0.10555 1.190619,-0.23455 z M 43.202933,43.185168 V 41.99454 h -1.058331 -1.058328 v 1.190628 1.190622 h 1.058328 1.058331 z m 36.814702,0.926041 c 0.44314,0 0.510889,-0.152299 0.441378,-0.99219 -0.0801,-0.967481 -0.108479,-0.99219 -1.140449,-0.99219 -1.010071,0 -1.062249,0.041 -1.144109,0.8983 -0.089,0.932421 0.32435,1.451909 0.967309,1.215588 0.193799,-0.0712 0.587941,-0.129508 0.875871,-0.129508 z M 41.615433,37.232061 V 36.17373 h -1.058331 -1.058328 v 1.058331 1.058339 h 1.058328 1.058331 z m 40.21667,0 V 36.17373 h -1.058328 -1.058342 v 1.058331 1.058339 h 1.058342 1.058328 z M 41.615433,20.8279 v -1.058339 h -1.058331 -1.058328 v 1.058339 1.05833 h 1.058328 1.058331 z m 40.21667,0 v -1.058339 h -1.058328 -1.058342 v 1.058339 1.05833 h 1.058342 1.058328 z M 43.070644,14.874769 c 0,-1.03197 -0.02471,-1.060379 -0.99219,-1.140449 l -0.99218,-0.0821 v 1.22257 1.222568 l 0.99218,-0.0821 c 0.967481,-0.0801 0.99219,-0.108471 0.99219,-1.140452 z m 37.30625,0 v -1.058331 h -1.05833 c -0.96561,0 -1.065861,0.0657 -1.144209,0.749951 -0.14255,1.244881 0.103798,1.540312 1.20823,1.448962 0.969939,-0.0802 0.994309,-0.108191 0.994309,-1.140582 z M 43.202933,12.625811 c 0,-0.145521 -0.47625,-0.264581 -1.058331,-0.264581 -0.582078,0 -1.058328,0.11906 -1.058328,0.264581 0,0.145518 0.47625,0.264588 1.058328,0.264588 0.582081,0 1.058331,-0.11907 1.058331,-0.264588 z m 1.5875,0 c 0,-0.145521 -0.178588,-0.264581 -0.39687,-0.264581 -0.218278,0 -0.39688,0.11906 -0.39688,0.264581 0,0.145518 0.178602,0.264588 0.39688,0.264588 0.218282,0 0.39687,-0.11907 0.39687,-0.264588 z m 32.54375,0 c 0,-0.145521 -0.119059,-0.264581 -0.26458,-0.264581 -0.145518,0 -0.264578,0.11906 -0.264578,0.264581 0,0.145518 0.11906,0.264588 0.264578,0.264588 0.145521,0 0.26458,-0.11907 0.26458,-0.264588 z m 3.175,0 c 0,-0.145521 -0.535778,-0.264581 -1.190619,-0.264581 -0.654849,0 -1.190631,0.11906 -1.190631,0.264581 0,0.145518 0.535782,0.264588 1.190631,0.264588 0.654841,0 1.190619,-0.11907 1.190619,-0.264588 z M 40.292524,9.9799801 v -1.5875 h 1.455201 c 0.80037,0 1.455208,-0.1190599 1.455208,-0.2645807 0,-0.1511988 -0.79375,-0.2645887 -1.852081,-0.2645887 h -1.852078 v 1.8520887 c 0,1.4699006 0.0819,1.8520806 0.39687,1.8520806 0.308679,0 0.39688,-0.35278 0.39688,-1.5874999 z m 2.859479,0.4630179 c -0.079,-1.0914986 -0.110461,-1.1268893 -1.073549,-1.2065977 l -0.99218,-0.0821 v 1.2065897 1.206601 h 1.073539 1.07355 z m 1.506141,-0.0661 c 0,-0.5762014 -0.142841,-1.0618494 -0.330729,-1.1244789 -0.233082,-0.0777 -0.330732,0.2542989 -0.330732,1.1244789 0,0.870191 0.0976,1.20218 0.330732,1.124479 0.187888,-0.0626 0.330729,-0.548269 0.330729,-1.124479 z m 2.991779,0.0661 c -0.079,-1.0914986 -0.110459,-1.1268893 -1.07355,-1.2065977 l -0.99219,-0.0821 v 1.2065897 1.206601 h 1.073549 1.073553 z M 75.878975,10.3769 V 9.3185693 h -1.058331 c -0.965599,0 -1.06586,0.065701 -1.144209,0.7499507 -0.142552,1.244881 0.103799,1.540309 1.208228,1.448959 0.969941,-0.0802 0.994312,-0.108191 0.994312,-1.140579 z m 1.455208,0 c 0,-0.6548411 -0.119059,-1.1906197 -0.26458,-1.1906197 -0.145518,0 -0.264578,0.5357786 -0.264578,1.1906197 0,0.654849 0.11906,1.19063 0.264578,1.19063 0.145521,0 0.26458,-0.535781 0.26458,-1.19063 z m 3.042711,0 V 9.3185693 h -1.05833 c -0.96561,0 -1.065861,0.065701 -1.144209,0.7499507 -0.14255,1.244881 0.103798,1.540309 1.20823,1.448959 0.969939,-0.0802 0.994309,-0.108191 0.994309,-1.140579 z M 81.832103,9.7154496 V 7.8633584 h -1.852078 c -2.222961,0 -2.489711,0.469511 -0.330732,0.5821124 l 1.521351,0.079399 0.0794,1.5213492 c 0.112612,2.158981 0.58211,1.892231 0.58211,-0.3307189 z m -28.31042,-0.79375 V 7.8633584 h -1.05833 -1.058328 v 1.0583412 1.0583307 h 1.058328 1.05833 z m 16.40417,0 V 7.8633584 h -1.058328 -1.058342 v 1.0583412 1.0583307 h 1.058342 1.058328 z"
       style="fill:#000000;stroke-width:0.0700042"
       id="path3298" />
  </g>
</svg>
