<?xml version="1.0" encoding="UTF-8" standalone="no"?>
<!-- Created with Inkscape (http://www.inkscape.org/) -->

<svg
   width="118.54624mm"
   height="117.82775mm"
   viewBox="0 0 118.54624 117.82775"
   version="1.1"
   id="svg2961"
   inkscape:version="1.1.2 (b8e25be833, 2022-02-05)"
   sodipodi:docname="borderv5.svg"
   xmlns:inkscape="http://www.inkscape.org/namespaces/inkscape"
   xmlns:sodipodi="http://sodipodi.sourceforge.net/DTD/sodipodi-0.dtd"
   xmlns="http://www.w3.org/2000/svg"
   xmlns:svg="http://www.w3.org/2000/svg">
  <sodipodi:namedview
     id="namedview2963"
     pagecolor="#505050"
     bordercolor="#ffffff"
     borderopacity="1"
     inkscape:pageshadow="0"
     inkscape:pageopacity="0"
     inkscape:pagecheckerboard="1"
     inkscape:document-units="mm"
     showgrid="false"
     fit-margin-top="0"
     fit-margin-left="0"
     fit-margin-right="0"
     fit-margin-bottom="0"
     inkscape:zoom="0.71090067"
     inkscape:cx="395.27322"
     inkscape:cy="331.26991"
     inkscape:window-width="1920"
     inkscape:window-height="991"
     inkscape:window-x="-9"
     inkscape:window-y="-9"
     inkscape:window-maximized="1"
     inkscape:current-layer="layer1" />
  <defs
     id="defs2958" />
  <g
     inkscape:label="Capa 1"
     inkscape:groupmode="layer"
     id="layer1"
     transform="translate(-0.50270058,-1.007178)">
    <path
       d="M 0.50270058,59.921049 V 1.007178 H 59.775818 119.04894 V 59.921049 118.83493 H 59.775818 0.50270058 Z M 17.027326,115.96109 c 0,-0.42263 -2.514615,-0.71845 -6.106934,-0.71845 H 4.8134727 v -6.10694 c 0,-4.94942 -0.2042885,-6.10693 -1.077693,-6.10693 -0.8823218,0 -1.077693,1.23735 -1.077693,6.82539 v 6.82538 h 7.1846119 c 4.3107724,0 7.1846274,-0.28738 7.1846274,-0.71845 z m 19.940923,-0.1795 c -0.162682,-0.49394 -0.981694,-0.99926 -1.820053,-1.12294 -1.290573,-0.19036 -1.557344,-0.78762 -1.739876,-3.89507 -0.324149,-5.51822 -2.011753,-5.42717 -2.011753,0.10862 v 4.37065 h -6.106926 c -3.592319,0 -6.106929,0.29582 -6.106929,0.71845 0,0.44091 3.492524,0.71845 9.040646,0.71845 6.911288,0 8.97099,-0.21153 8.744891,-0.89808 z m 8.079098,-1.97576 c 0,-1.58061 -0.323309,-2.87384 -0.718463,-2.87384 -0.395155,0 -0.718462,0.78677 -0.718462,1.74843 0,1.35949 -0.427205,1.799 -1.920364,1.97578 -3.252671,0.38506 -2.909704,2.02347 0.423572,2.02347 h 2.933717 z m 27.301555,-1.07771 c 0,-3.73598 0.09797,-3.95152 1.796157,-3.95152 1.516751,0 1.796154,-0.3353 1.796154,-2.15538 v -2.15539 h 6.106926 6.106913 v -7.903088 -7.903089 h 8.26232 8.262318 v -6.059186 -6.059221 l 1.97579,-0.227283 c 1.55185,-0.178405 2.02452,-0.651243 2.20309,-2.203099 0.21696,-1.885088 0.40654,-1.975757 4.13115,-1.975757 h 3.90384 V 59.921244 47.707378 h -3.90384 c -3.72461,0 -3.91424,-0.0907 -4.13115,-1.975756 -0.17868,-1.551851 -0.65124,-2.024556 -2.20309,-2.203121 l -1.97579,-0.227283 v -6.059221 -6.059195 h -8.262318 -8.26232 v -7.874039 -7.874042 l -5.927297,-0.20854 c -5.873262,-0.206918 -5.929387,-0.22674 -6.154647,-2.184441 -0.178568,-1.551878 -0.602479,-1.975792 -1.97577,-1.975792 -1.640342,0 -1.748436,-0.244385 -1.748436,-3.951541 V 3.1628874 H 59.775818 47.202733 V 7.114407 c 0,3.707264 -0.108102,3.951541 -1.748435,3.951541 -1.373291,0 -1.797211,0.423914 -1.97577,1.975792 -0.225247,1.957723 -0.281386,1.97766 -6.154648,2.184441 l -5.927313,0.20854 v 7.874042 7.874034 H 23.134255 14.87194 v 6.106907 c 0,5.990629 -0.03326,6.106926 -1.748433,6.106926 -1.373299,0 -1.797213,0.423909 -1.975773,1.975787 -0.215199,1.870378 -0.447687,1.987251 -4.3584907,2.19123 l -4.1311566,0.215335 v 12.177995 12.178016 h 4.310772 4.3107733 v 2.155386 c 0,1.810633 0.282626,2.155386 1.767093,2.155386 1.717496,0 1.772956,0.166457 1.97577,5.927305 l 0.208682,5.927305 8.082697,0.203115 8.082699,0.203116 v 7.879543 7.879571 h 6.106926 6.106929 v 2.15539 c 0,1.82009 0.2794,2.15539 1.796154,2.15539 1.698186,0 1.796154,0.2156 1.796154,3.95151 v 3.95155 h 12.573087 12.573084 z m 7.903083,2.797 c 0,-0.73111 -0.395269,-1.00287 -1.077693,-0.74102 -1.761383,0.6759 -3.233079,-0.29496 -3.233079,-2.13282 0,-0.9456 -0.323309,-1.71929 -0.718461,-1.71929 -0.395155,0 -0.718464,1.29323 -0.718464,2.87384 v 2.87384 h 2.87385 c 2.160594,0 2.873847,-0.28654 2.873847,-1.15455 z m 20.116935,0.003 c 0,-0.98361 -0.863626,-1.11447 -5.92731,-0.89807 l -5.927305,0.25362 -0.215606,-4.13114 c -0.273611,-5.24565 -1.580689,-5.43364 -1.580689,-0.22728 0,3.69572 -0.102372,3.91594 -1.920369,4.13117 -1.056203,0.12491 -2.053068,0.63145 -2.215257,1.12539 -0.225436,0.68652 1.834931,0.89808 8.745746,0.89808 7.814302,0 9.04065,-0.15614 9.04065,-1.15135 z m 16.52464,-5.6737 c 0,-5.58804 -0.19552,-6.82539 -1.07771,-6.82539 -0.87343,0 -1.07768,1.15751 -1.07768,6.10693 v 6.10694 h -6.10693 c -3.59232,0 -6.10694,0.29582 -6.10694,0.71844 0,0.43108 2.87384,0.71846 7.18461,0.71846 h 7.18465 z m -103.040556,2.51434 h 3.174322 v -2.87384 c 0,-2.71419 -0.119751,-2.87384 -2.155386,-2.87384 -1.820107,0 -2.155386,-0.27942 -2.155386,-1.79616 0,-1.61653 -0.287392,-1.79616 -2.8738554,-1.79616 H 6.9688587 v 4.61013 c 0,4.60222 0.606267,5.71045 2.7529889,5.03219 0.5262644,-0.16619 2.3852864,-0.30232 4.1311564,-0.30232 z m 27.465847,-2.73766 0.223047,-3.09688 -3.096894,0.22294 c -2.80359,0.20202 -3.118981,0.41592 -3.330085,2.25949 -0.387087,3.3804 0.28186,4.18263 3.280879,3.93458 2.62862,-0.21751 2.705907,-0.30522 2.923053,-3.32023 z m 43.107721,0 0.223047,-3.09688 -3.096894,0.22294 c -2.80359,0.20202 -3.118981,0.41592 -3.330086,2.25949 -0.387087,3.3804 0.281861,4.18263 3.280879,3.93458 2.628621,-0.21751 2.705908,-0.30522 2.923054,-3.32023 z m 15.942348,0.22294 c 0,-2.96964 -0.14637,-3.23306 -1.796162,-3.23306 -1.436908,0 -1.796162,-0.35926 -1.796162,-1.79616 0,-1.6498 -0.263398,-1.79617 -3.233063,-1.79617 h -3.233095 v 4.55025 c 0,2.50267 0.215606,4.76581 0.478978,5.02926 0.263398,0.2634 2.526587,0.47898 5.029254,0.47898 h 4.55025 z m 12.06707,-1.97576 0.21234,-4.84963 h -2.90669 c -2.62146,0 -2.90667,0.17624 -2.90667,1.79617 0,1.51673 -0.33527,1.79616 -2.15539,1.79616 -2.02002,0 -2.15538,0.17297 -2.15538,2.75409 0,1.51475 0.22918,2.98332 0.50937,3.26347 0.28015,0.28012 2.46247,0.41484 4.84962,0.29935 l 4.34026,-0.2099 z m -83.194809,-0.17949 v -4.67 h -2.873847 c -2.586463,0 -2.87385,0.17949 -2.87385,1.79616 0,1.51674 -0.335284,1.79616 -2.155386,1.79616 -2.035646,0 -2.155386,0.15967 -2.155386,2.87384 v 2.87384 h 5.029236 5.029233 z m -8.039331,-5.9273 C 20.985402,99.156246 20.889327,99.070734 17.925403,98.856295 L 14.87194,98.635258 v 2.915162 2.91517 h 3.276447 3.276451 z m 83.47784,-0.17976 v -2.873843 h -2.87384 -2.873868 v 2.873843 2.87387 h 2.873868 2.87384 z M 4.8134727,94.766319 v -6.106935 h 3.9515328 c 3.0335125,0 3.9515485,-0.250364 3.9515485,-1.077677 0,-0.825742 -0.912732,-1.077709 -3.903819,-1.077709 -3.6380125,0 -3.9192975,-0.123824 -4.1311575,-1.818475 C 4.5565284,83.685337 4.1309337,82.875781 3.7357797,82.88648 2.9923799,82.905488 2.3052931,98.199132 2.9699639,99.931234 c 0.1988277,0.518106 0.6949396,0.942016 1.1024943,0.942016 0.4509211,0 0.7410145,-2.390736 0.7410145,-6.106931 z m 7.9030813,3.951542 c 0,-1.915908 0.239475,-2.155386 2.155386,-2.155386 2.03564,0 2.155386,-0.159668 2.155386,-2.873833 V 90.81477 H 11.998085 6.9688587 v 5.029258 5.029222 h 2.8738399 c 2.7141924,0 2.8738554,-0.11975 2.8738554,-2.155389 z M 29.241181,95.844028 V 90.81477 h -5.029233 -5.029236 v 2.873872 c 0,2.714168 0.119751,2.873833 2.155386,2.873833 1.915894,0 2.155386,0.239503 2.155386,2.155386 0,2.035639 0.159668,2.155389 2.87385,2.155389 h 2.873847 z m 67.403528,2.694209 c 0.178677,-1.551848 0.602474,-1.975762 1.975784,-1.975762 1.560867,0 1.748427,-0.308306 1.748427,-2.873833 V 90.81477 h -5.029224 -5.029258 v 4.55028 c 0,2.502632 0.231084,4.78116 0.513192,5.06341 0.282219,0.28224 1.656293,0.41695 3.053442,0.29938 2.173576,-0.18302 2.573127,-0.49905 2.767637,-2.189603 z M 112.58278,95.844028 V 90.81477 h -5.02925 -5.02923 v 2.873872 c 0,2.714168 0.11975,2.873833 2.15539,2.873833 1.91591,0 2.15538,0.239503 2.15538,2.155386 0,2.035639 0.15967,2.155389 2.87384,2.155389 h 2.87387 z m 4.15499,-4.729766 c -0.12111,-5.093255 -0.49451,-8.561812 -0.92192,-8.561812 -0.39516,0 -0.82074,0.889127 -0.94579,1.975794 -0.21697,1.885056 -0.40653,1.975754 -4.13115,1.975754 -2.99109,0 -3.90384,0.251994 -3.90384,1.077709 0,0.827316 0.91805,1.077677 3.95155,1.077677 h 3.95155 v 5.62796 c 0,3.095392 0.22104,5.848876 0.49095,6.118906 1.2619,1.26189 1.6959,-1.411277 1.50865,-9.291988 z M 12.716554,81.474773 V 78.60094 H 9.8426986 6.9688587 v 2.873833 2.873839 h 2.8738399 2.8738554 z m 99.866226,0 V 78.60094 h -2.87387 -2.87384 v 2.873833 2.873839 h 2.87384 2.87387 z M 4.8134727,78.241678 c 0,-1.516738 0.3352776,-1.796124 2.155386,-1.796124 1.4722863,0 2.1553869,-0.354641 2.1553869,-1.119012 0,-0.872177 -0.6735883,-1.070266 -3.0534645,-0.89808 -2.9639288,0.214521 -3.0600016,0.299924 -3.2764526,2.915169 -0.1702829,2.057494 0.041959,2.694209 0.8980776,2.694209 0.716824,0 1.1210666,-0.647656 1.1210666,-1.796162 z M 116.89356,77.164001 v -2.873834 h -2.87388 c -2.07554,0 -2.87383,0.299346 -2.87383,1.077677 0,0.67055 0.67853,1.07771 1.79616,1.07771 1.43693,0 1.79616,0.359223 1.79616,1.796124 0,1.117626 0.40712,1.796162 1.07768,1.796162 0.77832,0 1.07771,-0.798282 1.07771,-2.873839 z M 8.9489608,44.294493 c 0.1931769,-0.588084 -0.4696502,-0.898077 -1.9202327,-0.898077 -1.9957294,0 -2.2152554,-0.219408 -2.2152554,-2.215264 0,-2.782733 -1.6948878,-2.485748 -2.0293534,0.35559 -0.3888317,3.303287 0.2956901,4.126586 3.2253484,3.879146 1.4544545,-0.122738 2.7772288,-0.627452 2.9394931,-1.121395 z M 116.53432,42.498339 c 0,-3.018304 -1.31134,-3.743518 -1.66426,-0.920401 -0.17325,1.385231 -0.64389,1.818478 -1.97577,1.818478 -1.10526,0 -1.74844,0.412398 -1.74844,1.121072 0,0.856126 0.63675,1.068368 2.69423,0.898077 2.59472,-0.214792 2.69424,-0.322508 2.69424,-2.917226 z M 12.716554,38.367188 V 35.493355 H 9.8426986 6.9688587 v 2.873833 2.873842 h 2.8738399 2.8738554 z m 99.866226,0 v -2.873833 h -2.87387 -2.87384 v 2.873833 2.873842 h 2.87384 2.87387 z M 4.8134727,35.134096 c 0,-1.698187 0.215525,-1.796127 3.9515328,-1.796127 3.0335125,0 3.9515485,-0.250365 3.9515485,-1.077707 0,-0.827318 -0.918036,-1.077679 -3.9515485,-1.077679 H 4.8134727 v -6.166812 c 0,-4.613488 -0.2261994,-6.091695 -0.8980776,-5.86862 -0.6375848,0.211802 -0.9565963,2.834024 -1.0998073,9.040644 -0.1720779,7.458081 -0.040161,8.742463 0.8980776,8.742463 0.6941494,0 1.0998073,-0.662488 1.0998073,-1.796162 z M 116.89356,27.94949 c 0,-7.503927 -0.17732,-8.980776 -1.07771,-8.980776 -0.87343,0 -1.07768,1.157514 -1.07768,6.106934 v 6.106935 h -3.95155 c -3.0335,0 -3.95155,0.250364 -3.95155,1.077679 0,0.827315 0.91805,1.077707 3.95155,1.077707 3.73599,0 3.95155,0.09803 3.95155,1.796127 0,1.117623 0.40712,1.796162 1.07768,1.796162 0.90047,0 1.07771,-1.47682 1.07771,-8.980768 z M 17.027326,26.153328 c 0,-2.7142 -0.119751,-2.873842 -2.155386,-2.873842 -1.9159,0 -2.155386,-0.2395 -2.155386,-2.155386 0,-2.035633 -0.159668,-2.155386 -2.8738554,-2.155386 H 6.9688587 v 5.029227 5.029255 h 5.0292263 5.029241 z m 12.213855,-2.155387 v -5.029227 h -2.826128 c -2.548958,0 -2.84842,0.193885 -3.053464,1.975763 -0.178567,1.551878 -0.651248,2.024554 -2.203107,2.203121 -1.782001,0.205019 -1.97577,0.504504 -1.97577,3.053464 v 2.826134 h 5.029236 5.029233 z m 71.127739,2.155387 c 0,-2.565557 -0.18764,-2.873842 -1.748427,-2.873842 -1.37331,0 -1.797218,-0.423907 -1.975784,-1.975785 -0.20583,-1.788173 -0.500158,-1.975756 -3.101176,-1.975756 h -2.873841 l -0.220495,3.8659 c -0.322761,5.660999 -0.168357,5.833351 5.227127,5.833351 h 4.692536 z m 12.21386,-2.155387 v -5.029227 h -2.87387 c -2.71417,0 -2.87384,0.119754 -2.87384,2.155386 0,1.915916 -0.2395,2.155386 -2.15538,2.155386 -2.03564,0 -2.15539,0.159671 -2.15539,2.873842 v 2.873868 h 5.02923 5.02925 z m -91.38093,-5.927305 0.222993,-2.694239 h -3.276458 -3.276448 v 2.915166 2.915167 L 17.9254,20.985696 c 2.963924,-0.214518 3.060002,-0.299951 3.276448,-2.915167 z m 83.47784,0.179494 v -2.87387 h -2.87384 -2.873868 v 2.87387 2.873834 h 2.873868 2.87384 z M 4.8134727,10.706264 V 4.5993301 h 6.1069193 c 3.592319,0 6.106934,-0.2958197 6.106934,-0.7184548 0,-0.4310773 -2.873855,-0.7184478 -7.1846274,-0.7184478 H 2.6580867 v 6.8253818 c 0,5.5880397 0.195371,6.8253817 1.077693,6.8253817 0.87342,0 1.077693,-1.157514 1.077693,-6.106927 z m 7.9030813,4.358478 c 0,-1.373282 0.423914,-1.797189 1.97577,-1.975756 1.767927,-0.20339 1.999006,-0.548546 2.196691,-3.2808065 L 17.109943,6.7547162 H 12.039406 6.9688587 v 5.0292558 5.029219 h 2.8738399 c 2.5655484,0 2.8738554,-0.187634 2.8738554,-1.748449 z m 16.524627,-3.28077 V 6.7547162 h -5.029233 -5.029236 v 3.2330931 c 0,3.1133117 0.07983,3.2330647 2.155386,3.2330647 1.820102,0 2.155386,0.279417 2.155386,1.796162 0,1.616533 0.287387,1.796155 2.87385,1.796155 h 2.873847 z m 67.535415,3.233064 c 0,-1.436938 0.359254,-1.796162 1.796162,-1.796162 1.652482,0 1.796162,-0.261226 1.796162,-3.2658912 v -3.265927 l -4.849625,0.212348 -4.849603,0.2123479 -0.212348,4.8496253 -0.212348,4.849626 h 3.265892 c 3.004672,0 3.265898,-0.14365 3.265898,-1.796162 z M 112.58278,11.751138 V 6.6890558 l -4.84962,0.212348 -4.84963,0.2123479 v 2.8738711 c 0,2.6010122 0.18764,2.8954232 1.97579,3.1011692 1.55184,0.178682 1.97575,0.602481 1.97575,1.975764 0,1.560865 0.30832,1.748449 2.87384,1.748449 h 2.87387 z m 4.31078,-1.7633287 V 3.1624275 h -7.18465 c -4.31077,0 -7.18461,0.2873705 -7.18461,0.7184478 0,0.4226351 2.51462,0.7184548 6.10694,0.7184548 h 6.10693 v 6.1069339 c 0,4.949413 0.2042,6.106927 1.07768,6.106927 0.88233,0 1.07771,-1.237342 1.07771,-6.8253817 z M 32.977256,9.089732 c 0.203985,-3.9108188 0.320852,-4.1432844 2.191238,-4.358514 1.086673,-0.1249105 1.97577,-0.5291545 1.97577,-0.8980488 0,-0.3795921 -3.89854,-0.6707417 -8.980776,-0.6707417 -5.508211,0 -8.980776,0.2777861 -8.980776,0.7184478 0,0.4226351 2.51461,0.7184548 6.106929,0.7184548 h 6.106926 v 4.3107721 c 0,5.5056248 1.295217,5.6528018 1.580689,0.1794937 z m 8.118549,0.8980773 c 0,-2.8022891 -0.0671,-2.8794089 -2.694232,-3.0968298 L 35.707339,6.6680413 v 3.3198261 3.3198196 l 2.694234,-0.222939 c 2.627136,-0.217507 2.694232,-0.294569 2.694232,-3.0968298 z M 84.426572,9.7648711 84.649619,6.6679622 81.552725,6.890895 c -2.80359,0.202032 -3.118981,0.4159247 -3.330086,2.259527 -0.387087,3.380378 0.281861,4.182627 3.280879,3.93455 2.628621,-0.217508 2.705908,-0.305196 2.923054,-3.3202073 z m 3.872265,-0.6750308 0.215607,-4.131171 5.927305,-0.2085491 C 103.87845,4.4178818 101.464,3.1626425 91.388286,3.1626425 c -5.508211,0 -8.980776,0.2777862 -8.980776,0.7184549 0,0.3951469 0.969925,0.7184475 2.155386,0.7184475 H 86.71829 V 8.910317 c 0,5.505625 1.295214,5.652802 1.580689,0.1794937 z M 45.047347,6.0363976 V 3.162564 h -2.873849 c -1.580616,0 -2.873848,0.3233006 -2.873848,0.7184476 0,0.3951543 0.969923,0.7184548 2.155386,0.7184548 1.9159,0 2.155386,0.2394997 2.155386,2.1553861 0,1.1854552 0.323307,2.155386 0.718462,2.155386 0.395154,0 0.718463,-1.2932316 0.718463,-2.8738409 z M 76.073108,6.9344825 C 76.251676,5.382626 76.724359,4.909921 78.276215,4.7313546 81.315007,4.381715 80.617093,3.162564 77.378138,3.162564 h -2.87385 v 2.8738336 c 0,3.2389634 1.219165,3.9368558 1.56882,0.8980849 z"
       style="fill:#000000;stroke-width:0.190093"
       id="path3177" />
  </g>
</svg>
