<?xml version="1.0" encoding="UTF-8" standalone="no"?>
<!-- Created with Inkscape (http://www.inkscape.org/) -->

<svg
   width="33mm"
   height="33mm"
   viewBox="0 0 33 33"
   version="1.1"
   id="svg5"
   inkscape:version="1.1.2 (b8e25be833, 2022-02-05)"
   sodipodi:docname="icon_ramen.svg"
   xmlns:inkscape="http://www.inkscape.org/namespaces/inkscape"
   xmlns:sodipodi="http://sodipodi.sourceforge.net/DTD/sodipodi-0.dtd"
   xmlns="http://www.w3.org/2000/svg"
   xmlns:svg="http://www.w3.org/2000/svg">
  <sodipodi:namedview
     id="namedview7"
     pagecolor="#505050"
     bordercolor="#ffffff"
     borderopacity="1"
     inkscape:pageshadow="0"
     inkscape:pageopacity="0"
     inkscape:pagecheckerboard="1"
     inkscape:document-units="mm"
     showgrid="false"
     inkscape:zoom="1.0053654"
     inkscape:cx="136.26887"
     inkscape:cy="271.04574"
     inkscape:window-width="1920"
     inkscape:window-height="991"
     inkscape:window-x="-9"
     inkscape:window-y="-9"
     inkscape:window-maximized="1"
     inkscape:current-layer="layer1"
     fit-margin-top="0"
     fit-margin-left="0"
     fit-margin-right="0"
     fit-margin-bottom="0" />
  <defs
     id="defs2">
    <inkscape:path-effect
       effect="bspline"
       id="path-effect36735"
       is_visible="true"
       lpeversion="1"
       weight="33.333333"
       steps="2"
       helper_size="0"
       apply_no_weight="true"
       apply_with_weight="true"
       only_selected="false" />
    <inkscape:path-effect
       effect="bspline"
       id="path-effect36613"
       is_visible="true"
       lpeversion="1"
       weight="33.333333"
       steps="2"
       helper_size="0"
       apply_no_weight="true"
       apply_with_weight="true"
       only_selected="false" />
    <inkscape:path-effect
       effect="bspline"
       id="path-effect36735-3"
       is_visible="true"
       lpeversion="1"
       weight="33.333333"
       steps="2"
       helper_size="0"
       apply_no_weight="true"
       apply_with_weight="true"
       only_selected="false" />
  </defs>
  <g
     inkscape:label="Capa 1"
     inkscape:groupmode="layer"
     id="layer1"
     style="display:inline"
     transform="translate(-13.804255,-18.545331)">
    <path
       style="fill:#000000;stroke-width:0.467207"
       d="m 26.530777,50.785151 c -3.336833,-0.439144 -3.965027,-0.719683 -3.765012,-1.681302 0.118135,-0.567555 1.392392,-0.685582 7.384414,-0.683957 6.56113,0.0019 7.24173,0.07823 7.24173,0.812671 0,1.394015 -5.78374,2.220794 -10.861132,1.552588 z m -5.193514,-4.351197 c -2.038208,-0.737588 -5.01739,-3.252005 -5.919057,-4.995652 L 14.70829,40.065491 h 15.441889 15.44189 l -0.70056,1.354746 c -0.98719,1.909001 -4.1272,4.470546 -6.26544,5.111173 -2.41384,0.723196 -15.220561,0.651008 -17.288806,-0.09747 z m -7.244912,-8.354102 c -0.154863,-0.578168 -0.284599,-1.2089 -0.288095,-1.401626 -0.0035,-0.192721 7.376679,-0.350394 16.400413,-0.350394 h 16.40681 l -0.28172,1.051217 c -0.15486,0.578167 -0.2846,1.208904 -0.2881,1.401625 -0.004,0.192725 -7.13015,0.350413 -15.83699,0.350413 H 14.374054 Z m 7.286091,-10.739857 c 0.114956,-6.79397 0.213754,-7.602599 0.94599,-7.743192 0.733066,-0.140737 0.817614,0.309498 0.817614,4.354673 0,3.401076 0.143738,4.464034 0.584012,4.31814 0.397259,-0.131553 0.627064,-1.570104 0.718622,-4.49836 l 0.134556,-4.304825 3.135847,0.137735 3.135866,0.137735 0.12837,7.592145 0.12838,7.592142 h -4.928852 -4.928833 z m 5.03406,4.549341 c 0,-1.156335 -0.21024,-2.102433 -0.467203,-2.102433 -0.256963,0 -0.467203,0.946098 -0.467203,2.102433 0,1.156351 0.21024,2.102448 0.467203,2.102448 0.256963,0 0.467203,-0.946097 0.467203,-2.102448 z m 3.270477,-4.905684 c 0,-3.114729 -0.184056,-5.139303 -0.467224,-5.139303 -0.520478,0 -0.668208,9.454633 -0.155747,9.967132 0.586381,0.58636 0.622951,0.302927 0.622951,-4.827829 z m -2.803257,-3.504073 c 0,-1.413302 -0.210257,-2.569637 -0.46722,-2.569637 -0.256964,0 -0.467203,1.156335 -0.467203,2.569637 0,1.413315 0.210239,2.569647 0.467203,2.569647 0.256963,0 0.46722,-1.156332 0.46722,-2.569647 z m -9.344182,0.233618 c 0,-0.256965 0.630736,-0.467222 1.401627,-0.467222 0.77089,0 1.401626,0.210257 1.401626,0.467222 0,0.256962 -0.630736,0.4672 -1.401626,0.4672 -0.770891,0 -1.401627,-0.210238 -1.401627,-0.4672 z m 14.483469,0 c 0,-0.289226 2.4918,-0.467222 6.54093,-0.467222 4.04915,0 6.54093,0.177996 6.54093,0.467222 0,0.289223 -2.49178,0.4672 -6.54093,0.4672 -4.04913,0 -6.54093,-0.177977 -6.54093,-0.4672 z M 17.53554,21.112503 c 0,-0.518662 0.363779,-0.688781 1.248794,-0.584013 1.81891,0.215343 1.9793,1.315859 0.191769,1.315859 -0.996174,0 -1.440563,-0.225763 -1.440563,-0.731846 z m 14.599639,0.147796 c 0.13968,-0.420494 1.98197,-0.620405 6.57985,-0.713993 5.47394,-0.111423 6.38584,-0.0281 6.38584,0.584013 0,0.60672 -0.98857,0.713993 -6.57987,0.713993 -5.05588,0 -6.53491,-0.135262 -6.38582,-0.584013 z"
       id="path73449" />
  </g>
  <g
     inkscape:groupmode="layer"
     id="layer4"
     inkscape:label="Capa 4"
     transform="translate(-13.804255,-18.545331)"
     style="display:inline" />
  <g
     inkscape:groupmode="layer"
     id="layer2"
     inkscape:label="Capa 2"
     style="display:none"
     transform="translate(-13.804255,-18.545331)" />
  <g
     inkscape:groupmode="layer"
     id="layer3"
     inkscape:label="Capa 3"
     style="display:none"
     transform="translate(-13.804255,-18.545331)" />
  <g
     inkscape:groupmode="layer"
     id="g36698"
     inkscape:label="Capa 3 copia"
     style="display:none"
     transform="translate(-13.804255,-18.545331)" />
</svg>
