<?xml version="1.0" encoding="UTF-8" standalone="no"?>
<!-- Created with Inkscape (http://www.inkscape.org/) -->

<svg
   width="33mm"
   height="33mm"
   viewBox="0 0 33 33"
   version="1.1"
   id="svg5"
   inkscape:version="1.1.2 (b8e25be833, 2022-02-05)"
   sodipodi:docname="icon_snacks.svg"
   xmlns:inkscape="http://www.inkscape.org/namespaces/inkscape"
   xmlns:sodipodi="http://sodipodi.sourceforge.net/DTD/sodipodi-0.dtd"
   xmlns="http://www.w3.org/2000/svg"
   xmlns:svg="http://www.w3.org/2000/svg">
  <sodipodi:namedview
     id="namedview7"
     pagecolor="#505050"
     bordercolor="#ffffff"
     borderopacity="1"
     inkscape:pageshadow="0"
     inkscape:pageopacity="0"
     inkscape:pagecheckerboard="1"
     inkscape:document-units="mm"
     showgrid="false"
     inkscape:zoom="2.0107307"
     inkscape:cx="80.567724"
     inkscape:cy="123.08958"
     inkscape:window-width="1920"
     inkscape:window-height="991"
     inkscape:window-x="-9"
     inkscape:window-y="-9"
     inkscape:window-maximized="1"
     inkscape:current-layer="layer1"
     fit-margin-top="0"
     fit-margin-left="0"
     fit-margin-right="0"
     fit-margin-bottom="0" />
  <defs
     id="defs2">
    <inkscape:path-effect
       effect="bspline"
       id="path-effect36735"
       is_visible="true"
       lpeversion="1"
       weight="33.333333"
       steps="2"
       helper_size="0"
       apply_no_weight="true"
       apply_with_weight="true"
       only_selected="false" />
    <inkscape:path-effect
       effect="bspline"
       id="path-effect36613"
       is_visible="true"
       lpeversion="1"
       weight="33.333333"
       steps="2"
       helper_size="0"
       apply_no_weight="true"
       apply_with_weight="true"
       only_selected="false" />
    <inkscape:path-effect
       effect="bspline"
       id="path-effect36735-3"
       is_visible="true"
       lpeversion="1"
       weight="33.333333"
       steps="2"
       helper_size="0"
       apply_no_weight="true"
       apply_with_weight="true"
       only_selected="false" />
  </defs>
  <g
     inkscape:label="Capa 1"
     inkscape:groupmode="layer"
     id="layer1"
     style="display:inline"
     transform="translate(-13.804255,-18.545331)">
    <path
       style="fill:#333333;stroke-width:0.141675;fill-opacity:1"
       d="m 15.86788,47.837731 c 0.04112,-0.0966 1.522007,-1.657563 3.291507,-3.468496 l 3.21727,-3.292605 1.125811,1.026533 1.125809,1.026538 -3.341723,3.475999 -3.341723,3.476004 -1.07561,-1.034058 c -0.769972,-0.740228 -1.054513,-1.08404 -1.001384,-1.20996 z m 5.793726,-9.954282 c 0.0078,-0.608505 0.259713,-1.137085 0.818774,-1.718604 0.559061,-0.581518 1.077322,-0.853956 1.685042,-0.885796 0.425309,-0.02227 0.489289,0.02819 2.563196,2.021988 1.169862,1.124668 2.115442,2.055862 2.101324,2.069332 -0.01481,0.01316 -0.311017,0.184264 -0.65973,0.379629 -0.348768,0.195321 -0.84099,0.570334 -1.093833,0.833344 -0.252853,0.263012 -0.608208,0.769602 -0.789629,1.125798 -0.181505,0.35614 -0.34048,0.659542 -0.353346,0.674181 -0.01302,0.01471 -0.980573,-0.893591 -2.150435,-2.018258 -2.073905,-1.993794 -2.126831,-2.05576 -2.121348,-2.481589 z m 5.624696,5.407418 c 0.03612,-1.194668 1.311476,-2.521252 2.503806,-2.604406 1.147047,-0.08 1.172095,1.374394 0.0439,2.547938 -0.79547,0.827425 -1.872095,1.148162 -2.340963,0.697404 -0.120859,-0.116182 -0.213893,-0.404611 -0.206738,-0.640936 z m 0.930637,-8.391308 0.932781,-0.970272 1.123472,1.08007 1.12347,1.080072 -0.932782,0.970273 -0.932792,0.970268 -1.12348,-1.080076 -1.123461,-1.080066 z m 0.248306,-3.914076 c -0.105374,-0.536138 0.193297,-1.247091 0.780543,-1.85795 0.56816,-0.590992 1.084185,-0.863749 1.694581,-0.895729 0.425308,-0.02227 0.489292,0.02819 2.563206,2.021991 1.169853,1.124663 2.110453,2.062056 2.09027,2.08305 -0.02025,0.02104 -0.293569,0.167326 -0.6074,0.325156 -0.726916,0.365519 -1.502838,1.171728 -1.925151,1.999435 -0.181506,0.356145 -0.34047,0.659544 -0.353345,0.67418 -0.01302,0.01471 -0.955395,-0.86938 -2.094439,-1.964425 -1.74938,-1.681801 -2.083088,-2.052386 -2.14869,-2.38616 z m 5.623487,5.504012 c -0.118402,-0.413986 0.27676,-1.434166 0.747022,-1.928601 0.772285,-0.812552 1.928679,-1.172219 2.377928,-0.740328 0.928214,0.892362 -1.006506,3.453177 -2.440014,3.229641 -0.461169,-0.0719 -0.570821,-0.161669 -0.684936,-0.560712 z m 0.103958,-7.669528 c -0.0014,-0.07346 0.387634,-0.539553 0.864676,-1.035753 l 0.867319,-0.902183 1.123472,1.080069 1.12347,1.080073 -0.932783,0.970271 -0.932791,0.970269 -1.05537,-1.014609 c -0.580469,-0.558039 -1.05656,-1.074717 -1.05803,-1.148163 z m 1.057823,-4.7644 c -0.132692,-0.465419 0.241292,-1.42499 0.76953,-1.974465 0.568881,-0.591742 1.084727,-0.864529 1.695345,-0.896514 0.42531,-0.02227 0.489292,0.02819 2.563198,2.021987 1.169861,1.124667 2.110451,2.062055 2.090278,2.083055 -0.02024,0.02103 -0.293569,0.167326 -0.607399,0.325156 -0.313858,0.157816 -0.802553,0.528161 -1.085989,0.82299 -0.283439,0.294835 -0.634239,0.797748 -0.779595,1.117546 -0.145495,0.319751 -0.302889,0.621676 -0.350133,0.670778 -0.122401,0.127442 -4.198143,-3.829923 -4.295269,-4.170571 z m 5.613177,5.386736 c -0.205845,-0.719783 0.762089,-2.258135 1.661948,-2.641333 0.85222,-0.362918 1.576029,-0.211395 1.706932,0.357318 0.02346,0.101966 -0.01437,0.440046 -0.08425,0.751248 -0.246179,1.097562 -1.863892,2.321045 -2.742156,2.073901 -0.367637,-0.103447 -0.437121,-0.172773 -0.542478,-0.541134 z m 0.103959,-7.66953 c -0.0044,-0.219302 1.167825,-1.34664 1.668955,-1.605215 1.058265,-0.545998 2.296594,0.399181 2.086817,1.592803 -0.08335,0.474247 -0.231322,0.70747 -0.871378,1.373233 l -0.770987,0.801966 -1.055381,-1.014613 c -0.580459,-0.558036 -1.05656,-1.074717 -1.058018,-1.148168 z"
       id="path73549" />
    <path
       style="display:inline;fill:#000000;stroke-width:0.141675"
       d="m 44.740668,47.837757 c -0.04112,-0.0966 -1.522007,-1.657563 -3.291507,-3.468496 l -3.21727,-3.292605 -1.125811,1.026533 -1.125809,1.026538 3.341723,3.475999 3.341723,3.476004 1.07561,-1.034058 c 0.769972,-0.740228 1.054513,-1.08404 1.001384,-1.20996 z m -5.793726,-9.954282 c -0.0078,-0.608505 -0.259713,-1.137085 -0.818774,-1.718604 -0.559061,-0.581518 -1.077322,-0.853956 -1.685042,-0.885796 -0.425309,-0.02227 -0.489289,0.02819 -2.563196,2.021988 -1.169862,1.124668 -2.115443,2.055862 -2.101325,2.069332 0.01481,0.01316 0.311018,0.184264 0.65973,0.379629 0.348768,0.195321 0.84099,0.570334 1.093833,0.833344 0.252853,0.263012 0.608208,0.769602 0.789629,1.125798 0.181506,0.35614 0.34048,0.659542 0.353346,0.674181 0.01302,0.01471 0.980573,-0.893591 2.150435,-2.018258 2.073905,-1.993794 2.126831,-2.05576 2.121349,-2.481589 z m -5.624696,5.407418 c -0.03612,-1.194668 -1.311476,-2.521252 -2.503806,-2.604406 -1.147047,-0.08 -1.172095,1.374394 -0.0439,2.547938 0.79547,0.827425 1.872095,1.148162 2.340963,0.697404 0.120858,-0.116182 0.213893,-0.404611 0.206738,-0.640936 z m -0.930637,-8.391308 -0.932781,-0.970272 -1.123472,1.08007 -1.12347,1.080072 0.932782,0.970273 0.932792,0.970268 1.12348,-1.080076 1.123461,-1.080066 z m -0.248306,-3.914076 c 0.105373,-0.536138 -0.193297,-1.247091 -0.780543,-1.85795 -0.56816,-0.590992 -1.084185,-0.863749 -1.694581,-0.895729 -0.425309,-0.02227 -0.489292,0.02819 -2.563207,2.021991 -1.169853,1.124663 -2.110452,2.062056 -2.090269,2.08305 0.02025,0.02104 0.293569,0.167326 0.6074,0.325156 0.726916,0.365519 1.502838,1.171728 1.925151,1.999435 0.181506,0.356145 0.34047,0.659544 0.353344,0.67418 0.01302,0.01471 0.955396,-0.86938 2.09444,-1.964425 1.74938,-1.681801 2.083088,-2.052386 2.14869,-2.38616 z m -5.623487,5.504012 c 0.118402,-0.413986 -0.276761,-1.434166 -0.747022,-1.928601 -0.772285,-0.812552 -1.928679,-1.172219 -2.377928,-0.740328 -0.928214,0.892362 1.006506,3.453177 2.440013,3.229641 0.461169,-0.0719 0.570822,-0.161669 0.684937,-0.560712 z m -0.103959,-7.669528 c 0.0014,-0.07346 -0.387633,-0.539553 -0.864676,-1.035753 l -0.867318,-0.902183 -1.123473,1.080069 -1.12347,1.080073 0.932783,0.970271 0.932792,0.970269 1.05537,-1.014609 c 0.580469,-0.558039 1.05656,-1.074717 1.05803,-1.148163 z m -1.057823,-4.7644 c 0.132693,-0.465419 -0.241292,-1.42499 -0.76953,-1.974465 -0.56888,-0.591742 -1.084727,-0.864529 -1.695345,-0.896514 -0.42531,-0.02227 -0.489291,0.02819 -2.563198,2.021987 -1.169861,1.124667 -2.110451,2.062055 -2.090278,2.083055 0.02024,0.02103 0.29357,0.167326 0.607399,0.325156 0.313859,0.157816 0.802553,0.528161 1.085989,0.82299 0.283439,0.294835 0.63424,0.797748 0.779595,1.117546 0.145495,0.319751 0.30289,0.621676 0.350133,0.670778 0.122402,0.127442 4.198143,-3.829923 4.295269,-4.170571 z m -5.613176,5.386736 c 0.205845,-0.719783 -0.762089,-2.258135 -1.661949,-2.641333 -0.85222,-0.362918 -1.576028,-0.211395 -1.706931,0.357318 -0.02346,0.101966 0.01437,0.440046 0.08425,0.751248 0.246179,1.097562 1.863892,2.321045 2.742156,2.073901 0.367637,-0.103447 0.437121,-0.172773 0.542478,-0.541134 z m -0.103959,-7.66953 c 0.0044,-0.219302 -1.167826,-1.34664 -1.668955,-1.605215 -1.058265,-0.545998 -2.296594,0.399181 -2.086818,1.592803 0.08335,0.474247 0.231323,0.70747 0.871379,1.373233 l 0.770986,0.801966 1.055381,-1.014613 c 0.580459,-0.558036 1.05656,-1.074717 1.058018,-1.148168 z"
       id="path73549-4" />
  </g>
  <g
     inkscape:groupmode="layer"
     id="layer4"
     inkscape:label="Capa 4"
     transform="translate(-13.804255,-18.545331)"
     style="display:inline" />
  <g
     inkscape:groupmode="layer"
     id="layer2"
     inkscape:label="Capa 2"
     style="display:none"
     transform="translate(-13.804255,-18.545331)" />
  <g
     inkscape:groupmode="layer"
     id="layer3"
     inkscape:label="Capa 3"
     style="display:none"
     transform="translate(-13.804255,-18.545331)" />
  <g
     inkscape:groupmode="layer"
     id="g36698"
     inkscape:label="Capa 3 copia"
     style="display:none"
     transform="translate(-13.804255,-18.545331)" />
</svg>
