<?xml version="1.0" encoding="UTF-8" standalone="no"?>
<!-- Created with Inkscape (http://www.inkscape.org/) -->

<svg
   width="33mm"
   height="33mm"
   viewBox="0 0 33 33"
   version="1.1"
   id="svg5"
   inkscape:version="1.1.2 (b8e25be833, 2022-02-05)"
   sodipodi:docname="icon_drinks.svg"
   xmlns:inkscape="http://www.inkscape.org/namespaces/inkscape"
   xmlns:sodipodi="http://sodipodi.sourceforge.net/DTD/sodipodi-0.dtd"
   xmlns="http://www.w3.org/2000/svg"
   xmlns:svg="http://www.w3.org/2000/svg">
  <sodipodi:namedview
     id="namedview7"
     pagecolor="#505050"
     bordercolor="#ffffff"
     borderopacity="1"
     inkscape:pageshadow="0"
     inkscape:pageopacity="0"
     inkscape:pagecheckerboard="1"
     inkscape:document-units="mm"
     showgrid="false"
     inkscape:zoom="1.0053654"
     inkscape:cx="127.3169"
     inkscape:cy="295.91232"
     inkscape:window-width="1920"
     inkscape:window-height="991"
     inkscape:window-x="-9"
     inkscape:window-y="-9"
     inkscape:window-maximized="1"
     inkscape:current-layer="layer1"
     fit-margin-top="0"
     fit-margin-left="0"
     fit-margin-right="0"
     fit-margin-bottom="0" />
  <defs
     id="defs2">
    <inkscape:path-effect
       effect="bspline"
       id="path-effect36735"
       is_visible="true"
       lpeversion="1"
       weight="33.333333"
       steps="2"
       helper_size="0"
       apply_no_weight="true"
       apply_with_weight="true"
       only_selected="false" />
    <inkscape:path-effect
       effect="bspline"
       id="path-effect36613"
       is_visible="true"
       lpeversion="1"
       weight="33.333333"
       steps="2"
       helper_size="0"
       apply_no_weight="true"
       apply_with_weight="true"
       only_selected="false" />
    <inkscape:path-effect
       effect="bspline"
       id="path-effect36735-3"
       is_visible="true"
       lpeversion="1"
       weight="33.333333"
       steps="2"
       helper_size="0"
       apply_no_weight="true"
       apply_with_weight="true"
       only_selected="false" />
  </defs>
  <g
     inkscape:label="Capa 1"
     inkscape:groupmode="layer"
     id="layer1"
     style="display:inline"
     transform="translate(-13.804255,-18.545331)">
    <path
       style="fill:#000000;stroke-width:0.105391"
       d="m 17.055399,49.025904 c 0,-0.367226 0.343246,-1.339679 0.669176,-1.895832 0.385742,-0.658213 1.198057,-1.453462 1.880197,-1.840689 1.509038,-0.856611 3.440137,-0.884642 5.038765,-0.07313 1.114347,0.56567 2.13818,1.813801 2.530938,3.085408 0.310973,1.006809 0.334109,0.971365 -0.633901,0.971365 -0.671926,0 -0.843129,-0.03151 -0.843129,-0.15508 0,-0.312393 -0.514237,-1.305707 -0.893004,-1.724962 -0.214114,-0.237001 -0.670891,-0.571621 -1.015053,-0.743598 -0.823251,-0.41139 -1.564141,-0.500344 -2.394806,-0.287538 -1.38588,0.355046 -2.28193,1.27273 -2.713942,2.77944 -0.02588,0.09038 -0.286922,0.131738 -0.831506,0.131738 -0.762379,0 -0.793735,-0.0098 -0.793735,-0.247118 z m 2.740156,0.148589 c 0,-0.437962 0.673588,-1.286874 1.25472,-1.581306 0.966907,-0.489887 2.118515,-0.321868 2.85725,0.416866 0.33203,0.332034 0.736012,1.003388 0.736012,1.223145 0,0.02191 -1.090796,0.03983 -2.423991,0.03983 -1.43321,0 -2.423991,-0.04027 -2.423991,-0.09853 z m 13.72766,-0.454776 c -0.183632,-0.304313 -0.4539,-0.826 -0.600594,-1.159296 l -0.266713,-0.606 h 5.795172 c 3.887276,0 5.795164,0.03556 5.795164,0.108022 0,0.145278 -0.71258,1.557865 -0.968926,1.920752 l -0.204731,0.289828 H 38.464841 33.857078 Z M 16.260883,46.91119 c -0.0694,-0.462664 -0.06651,-0.467859 0.609628,-1.132951 0.508825,-0.500455 0.736309,-0.821252 0.906367,-1.278107 0.300793,-0.808103 0.30081,-1.767045 4.2e-5,-2.570905 -0.266713,-0.712885 -1.062443,-1.569528 -1.749707,-1.883669 l -0.448521,-0.20502 0.02698,-0.790432 0.02698,-0.79043 0.30646,0.02211 c 0.855404,0.06175 2.343624,1.194951 2.998429,2.283167 0.568117,0.944148 0.896474,2.522462 0.687188,3.303113 -0.03699,0.137773 -0.290868,0.362298 -0.619538,0.547788 -0.765315,0.431922 -1.829905,1.525635 -2.247359,2.308875 -0.19091,0.358188 -0.365134,0.65125 -0.387166,0.65125 -0.02206,0 -0.07143,-0.209158 -0.109755,-0.464798 z M 27.89049,46.87358 c -0.09803,-0.02071 -0.296543,-0.239478 -0.441115,-0.486179 -0.370318,-0.631899 -1.593546,-1.748507 -2.30761,-2.106464 -0.5568,-0.279132 -0.615364,-0.343446 -0.76758,-0.843128 -0.594061,-1.950106 -0.08683,-3.923656 1.367359,-5.32003 0.721064,-0.692405 1.686147,-1.221874 2.443368,-1.340508 l 0.432343,-0.06773 0.06711,0.406195 c 0.03699,0.22341 0.06761,0.57769 0.06829,0.78729 8.49e-4,0.371616 -0.0151,0.387032 -0.653371,0.619747 -0.87837,0.320275 -1.746857,1.174218 -2.068494,2.033877 -0.65584,1.75288 0.172357,3.797612 1.829285,4.516307 0.389279,0.168852 0.558115,0.298312 0.529474,0.405987 -0.02308,0.08695 -0.07228,0.397484 -0.109331,0.69008 -0.07932,0.627888 -0.149815,0.755206 -0.389695,0.704562 z m 4.269531,-1.789014 c -0.151376,-0.645258 -0.19075,-1.239754 -0.186728,-2.820047 0.0051,-1.801131 0.033,-2.114141 0.282561,-3.113677 0.317184,-1.270279 0.646465,-2.189053 1.122534,-3.132115 l 0.33181,-0.657312 h 4.800565 4.800583 l 0.402166,0.870482 c 0.460806,0.997413 0.854081,2.189627 1.121864,3.400918 0.269292,1.218098 0.256109,4.438649 -0.0224,5.477256 l -0.197842,0.737736 -6.131648,0.02721 -6.13164,0.02721 z m 3.17317,-0.403588 c 0.0944,-0.09435 0.165603,-0.343773 0.165603,-0.579646 v -0.414035 h 2.989767 2.989767 l 0.05956,0.444216 c 0.08499,0.633524 0.451466,0.871684 0.870201,0.565493 0.19332,-0.14135 0.204578,-0.298566 0.204578,-2.85405 0,-3.240455 0.117925,-3.003638 -1.495609,-3.003638 h -1.086461 v -0.368867 c 0,-0.357001 0.0129,-0.368871 0.40142,-0.368871 0.643241,0 0.9853,-0.411217 0.691251,-0.831028 -0.151156,-0.215801 -0.232201,-0.22288 -2.553046,-0.22288 -2.50278,0 -2.649864,0.02557 -2.649864,0.46069 0,0.349134 0.310261,0.593218 0.754066,0.593218 0.392851,0 0.405228,0.01127 0.405228,0.368871 v 0.368867 h -1.124654 c -1.622535,0 -1.510125,-0.222239 -1.510125,2.985328 0,2.30538 0.02197,2.660689 0.174427,2.829218 0.214063,0.236538 0.493833,0.247166 0.713878,0.02712 z m 0.165603,-3.417676 v -1.37008 h 0.790436 0.790435 v 0.316172 c 0,0.302283 -0.01985,0.316174 -0.453187,0.316174 -0.506245,0 -0.706107,0.138513 -0.706107,0.48936 0,0.368872 0.383553,0.564546 1.106602,0.564546 1.083236,0 1.106601,-0.04019 1.106601,-1.903011 v -1.574887 h 0.42156 0.421568 v 1.528168 c 0,1.860528 0.04793,1.94973 1.047054,1.94973 0.756288,0 1.118766,-0.123577 1.192796,-0.406656 0.09313,-0.356114 -0.190453,-0.631644 -0.687137,-0.667625 -0.398857,-0.02888 -0.449641,-0.06303 -0.479462,-0.322144 l -0.03334,-0.289827 h 0.744733 0.744742 v 1.37008 1.370084 H 38.50245 35.498804 Z m -19.533665,3.794071 c -0.141569,-0.413503 -0.422078,-4.00485 -0.312815,-4.00485 0.223345,0 0.831811,0.637443 1.044525,1.09427 0.426328,0.915616 0.296543,1.952195 -0.335084,2.676116 -0.255227,0.292525 -0.356294,0.352269 -0.396626,0.234464 z m 11.963377,-1.158488 c -1.299624,-0.941439 -1.451035,-2.687904 -0.330206,-3.808731 0.43241,-0.43242 1.069349,-0.739761 1.220284,-0.588828 0.05989,0.0599 -0.147992,4.011216 -0.232719,4.423095 -0.07483,0.363562 -0.122803,0.361699 -0.657359,-0.02554 z m -7.184428,-0.731796 c 0,-2.640025 -1.862067,-5.098897 -4.512872,-5.959289 l -0.560728,-0.181996 0.05625,-0.384282 c 0.03097,-0.211358 0.109559,-0.834832 0.174689,-1.3855 0.391087,-3.307077 1.522011,-6.921091 2.903267,-9.277858 l 0.374653,-0.639232 -0.20457,-0.890648 -0.20457,-0.890646 h 3.42233 3.422339 l -0.05701,0.237129 c -0.335653,1.396158 -0.33757,1.519147 -0.03215,2.050674 1.448151,2.519603 2.36418,5.414262 2.964833,9.368995 l 0.06566,0.432668 -0.454604,0.06338 c -0.250026,0.03486 -0.762567,0.189078 -1.138976,0.342702 -2.48107,1.012604 -4.030211,3.461607 -3.862385,6.105933 0.03309,0.521687 0.0911,1.055227 0.12892,1.185651 0.06787,0.234467 0.05701,0.237144 -0.971149,0.238566 -0.571918,7.97e-4 -1.14656,0.03004 -1.276981,0.06499 -0.223523,0.05991 -0.237131,0.03231 -0.237131,-0.481239 z m 13.806211,-8.968532 c 0,-0.05992 0.385334,-0.518045 0.856312,-1.01805 0.616653,-0.65466 0.963242,-1.132987 1.238346,-1.709045 l 0.382026,-0.799941 0.05268,-2.423991 0.05268,-2.423989 h 1.370083 1.370074 l 0.05336,2.476687 0.05336,2.476682 0.336773,0.714776 c 0.240982,0.511447 0.593051,0.981159 1.237676,1.651243 0.495496,0.515062 0.900903,0.987797 0.900903,1.050526 0,0.07977 -1.187596,0.114053 -3.952169,0.114053 -2.650551,0 -3.952152,-0.03589 -3.952152,-0.108951 z m 1.47546,-10.061272 V 23.55764 h 2.476692 2.476684 v 0.579647 0.579651 h -2.476684 -2.476692 z m -17.541263,-1.87068 c -0.0218,-0.07245 -0.109941,-0.428151 -0.195704,-0.79043 l -0.155941,-0.658693 h 4.057207 4.057198 l -0.05998,0.238962 c -0.033,0.131427 -0.113191,0.487122 -0.178236,0.790429 l -0.118281,0.551472 h -3.68325 c -2.85512,0 -3.692191,-0.02964 -3.723021,-0.131738 z"
       id="path73499" />
  </g>
  <g
     inkscape:groupmode="layer"
     id="layer4"
     inkscape:label="Capa 4"
     transform="translate(-13.804255,-18.545331)"
     style="display:inline" />
  <g
     inkscape:groupmode="layer"
     id="layer2"
     inkscape:label="Capa 2"
     style="display:none"
     transform="translate(-13.804255,-18.545331)" />
  <g
     inkscape:groupmode="layer"
     id="layer3"
     inkscape:label="Capa 3"
     style="display:none"
     transform="translate(-13.804255,-18.545331)" />
  <g
     inkscape:groupmode="layer"
     id="g36698"
     inkscape:label="Capa 3 copia"
     style="display:none"
     transform="translate(-13.804255,-18.545331)" />
</svg>
