<?xml version="1.0" encoding="UTF-8" standalone="no"?>
<!-- Created with Inkscape (http://www.inkscape.org/) -->

<svg
   width="33mm"
   height="33mm"
   viewBox="0 0 33 33"
   version="1.1"
   id="svg5"
   inkscape:version="1.1.2 (b8e25be833, 2022-02-05)"
   sodipodi:docname="icon_rice.svg"
   xmlns:inkscape="http://www.inkscape.org/namespaces/inkscape"
   xmlns:sodipodi="http://sodipodi.sourceforge.net/DTD/sodipodi-0.dtd"
   xmlns="http://www.w3.org/2000/svg"
   xmlns:svg="http://www.w3.org/2000/svg">
  <sodipodi:namedview
     id="namedview7"
     pagecolor="#505050"
     bordercolor="#ffffff"
     borderopacity="1"
     inkscape:pageshadow="0"
     inkscape:pageopacity="0"
     inkscape:pagecheckerboard="1"
     inkscape:document-units="mm"
     showgrid="false"
     inkscape:zoom="0.50268269"
     inkscape:cx="91.50902"
     inkscape:cy="275.52172"
     inkscape:window-width="1920"
     inkscape:window-height="991"
     inkscape:window-x="-9"
     inkscape:window-y="-9"
     inkscape:window-maximized="1"
     inkscape:current-layer="layer1"
     fit-margin-top="0"
     fit-margin-left="0"
     fit-margin-right="0"
     fit-margin-bottom="0" />
  <defs
     id="defs2">
    <inkscape:path-effect
       effect="bspline"
       id="path-effect36735"
       is_visible="true"
       lpeversion="1"
       weight="33.333333"
       steps="2"
       helper_size="0"
       apply_no_weight="true"
       apply_with_weight="true"
       only_selected="false" />
    <inkscape:path-effect
       effect="bspline"
       id="path-effect36613"
       is_visible="true"
       lpeversion="1"
       weight="33.333333"
       steps="2"
       helper_size="0"
       apply_no_weight="true"
       apply_with_weight="true"
       only_selected="false" />
    <inkscape:path-effect
       effect="bspline"
       id="path-effect36735-3"
       is_visible="true"
       lpeversion="1"
       weight="33.333333"
       steps="2"
       helper_size="0"
       apply_no_weight="true"
       apply_with_weight="true"
       only_selected="false" />
  </defs>
  <g
     inkscape:label="Capa 1"
     inkscape:groupmode="layer"
     id="layer1"
     style="display:inline"
     transform="translate(-13.804255,-18.545331)">
    <path
       style="display:inline;fill:#000000;stroke-width:0.467207"
       d="m 26.743792,51.126634 c -3.336833,-0.439144 -3.965027,-0.719683 -3.765012,-1.681302 0.118135,-0.567555 1.392392,-0.685582 7.384414,-0.683957 6.56113,0.0019 7.24173,0.07823 7.24173,0.812671 0,1.394015 -5.78374,2.220794 -10.861132,1.552588 z m -5.193514,-4.351197 c -2.038208,-0.737588 -5.01739,-3.252005 -5.919057,-4.995652 l -0.709916,-1.372811 h 15.441889 15.44189 l -0.70056,1.354746 c -0.98719,1.909001 -4.1272,4.470546 -6.26544,5.111173 -2.41384,0.723196 -15.220561,0.651008 -17.288806,-0.09747 z m -7.244912,-8.354102 c -0.154863,-0.578168 -0.284599,-1.2089 -0.288095,-1.401626 -0.0035,-0.192721 7.376679,-0.350394 16.400413,-0.350394 h 16.40681 l -0.28172,1.051217 c -0.15486,0.578167 -0.2846,1.208904 -0.2881,1.401625 -0.004,0.192725 -7.13015,0.350413 -15.83699,0.350413 H 14.587069 Z"
       id="path73449-5"
       sodipodi:nodetypes="sccsssscccsssscsscccscc" />
    <path
       style="fill:#000000;stroke-width:0.157892"
       d="m 16.9401,35.100585 c -0.560016,-0.560016 -0.529217,-1.389785 0.07398,-1.992976 0.410116,-0.410116 0.569773,-0.461533 1.433174,-0.461533 0.863402,0 1.023059,0.05144 1.433175,0.461533 0.603191,0.603191 0.633996,1.43296 0.07398,1.992976 -0.338607,0.3386 -0.528967,0.387552 -1.507155,0.387552 -0.978188,0 -1.168548,-0.04893 -1.507154,-0.387552 z m 6.0405,0.06984 c -0.222144,-0.174743 -0.449389,-0.524813 -0.504983,-0.77794 -0.117335,-0.534218 0.236937,-1.336201 0.699657,-1.583838 0.3929,-0.210274 1.992982,-0.210274 2.385875,0 0.462721,0.247637 0.816998,1.04962 0.699663,1.583838 -0.165552,0.753753 -0.756134,1.095648 -1.8926,1.095648 -0.746616,0 -1.081058,-0.07658 -1.387612,-0.317708 z m 5.80142,-0.06984 C 28.222005,34.540569 28.252803,33.7108 28.856,33.107609 c 0.410111,-0.410116 0.569773,-0.461533 1.433175,-0.461533 0.863402,0 1.023058,0.05144 1.433175,0.461533 0.603197,0.603191 0.633995,1.43296 0.07398,1.992976 -0.338607,0.3386 -0.528967,0.387552 -1.507155,0.387552 -0.978188,0 -1.168548,-0.04893 -1.507155,-0.387552 z m 6.0405,0.06984 c -0.222149,-0.174743 -0.449388,-0.524813 -0.504982,-0.77794 -0.117335,-0.534218 0.236936,-1.336201 0.699657,-1.583838 0.392899,-0.210274 1.992975,-0.210274 2.385875,0 0.46272,0.247637 0.816998,1.04962 0.699663,1.583838 -0.165553,0.753753 -0.756134,1.095648 -1.892601,1.095648 -0.746616,0 -1.081057,-0.07658 -1.387612,-0.317708 z m 5.801421,-0.06984 c -0.560016,-0.560016 -0.529217,-1.389785 0.07398,-1.992976 0.41011,-0.410116 0.569773,-0.461533 1.433175,-0.461533 0.863401,0 1.023058,0.05144 1.433174,0.461533 0.603197,0.603191 0.633996,1.43296 0.07398,1.992976 -0.338606,0.3386 -0.528966,0.387552 -1.507154,0.387552 -0.978188,0 -1.168548,-0.04893 -1.507155,-0.387552 z m -20.68389,-4.420982 c -0.538568,-0.538575 -0.538568,-1.528387 0,-2.066956 0.333451,-0.33345 0.533538,-0.387552 1.43318,-0.387552 0.945164,0 1.089961,0.04434 1.507149,0.461526 0.314999,0.314999 0.461533,0.619638 0.461533,0.959504 0,0.33986 -0.146534,0.644505 -0.461533,0.959498 -0.417188,0.417187 -0.561985,0.461532 -1.507149,0.461532 -0.899642,0 -1.099729,-0.05413 -1.43318,-0.387552 z m 5.915992,-0.07398 c -0.314993,-0.314993 -0.461527,-0.619638 -0.461527,-0.959498 0,-0.339866 0.146534,-0.644505 0.461527,-0.959504 0.417194,-0.417187 0.561991,-0.461526 1.507155,-0.461526 1.317045,0 1.820733,0.393114 1.820733,1.42103 0,1.027916 -0.503688,1.42103 -1.820733,1.42103 -0.945164,0 -1.089961,-0.04434 -1.507155,-0.461532 z m 5.925935,0.07398 c -0.285167,-0.285167 -0.387559,-0.558208 -0.387559,-1.033478 0,-1.027916 0.503688,-1.42103 1.820733,-1.42103 0.945164,0 1.089961,0.04434 1.507149,0.461526 0.314999,0.314999 0.461533,0.619638 0.461533,0.959504 0,0.33986 -0.146534,0.644505 -0.461533,0.959498 -0.417188,0.417187 -0.561985,0.461532 -1.507149,0.461532 -0.899643,0 -1.09973,-0.05413 -1.433174,-0.387552 z m 5.915986,-0.07398 c -0.314993,-0.314993 -0.461527,-0.619638 -0.461527,-0.959498 0,-0.339866 0.146534,-0.644505 0.461527,-0.959504 0.417194,-0.417187 0.561991,-0.461526 1.507155,-0.461526 1.317045,0 1.820733,0.393114 1.820733,1.42103 0,1.027916 -0.503688,1.42103 -1.820733,1.42103 -0.945164,0 -1.089961,-0.04434 -1.507155,-0.461532 z M 25.856043,26.184641 c -0.588379,-0.588386 -0.606437,-1.23674 -0.05275,-1.894743 0.384318,-0.456729 0.47447,-0.485791 1.507154,-0.485791 0.955667,0 1.148748,0.05037 1.48594,0.387558 0.385512,0.385506 0.513457,1.153224 0.289476,1.736913 -0.161835,0.421747 -0.936875,0.71759 -1.879878,0.71759 -0.771388,0 -0.94918,-0.06079 -1.349927,-0.461527 z m 6.248894,0.279205 c -0.824403,-0.450916 -0.988655,-1.606491 -0.322959,-2.272181 0.337192,-0.337198 0.530273,-0.387558 1.485939,-0.387558 1.032679,0 1.122837,0.02906 1.507149,0.485791 0.553678,0.658003 0.53562,1.306357 -0.05275,1.894743 -0.406142,0.406142 -0.571933,0.460954 -1.381555,0.456729 -0.506015,-0.0024 -1.062128,-0.08253 -1.235809,-0.177524 z"
       id="path74357"
       sodipodi:nodetypes="ssscssssssssssssscssssssssssssscssscsssssscssssssssssssssssssssssssssssssssssscss" />
  </g>
  <g
     inkscape:groupmode="layer"
     id="layer4"
     inkscape:label="Capa 4"
     transform="translate(-13.804255,-18.545331)"
     style="display:inline" />
  <g
     inkscape:groupmode="layer"
     id="layer2"
     inkscape:label="Capa 2"
     style="display:none"
     transform="translate(-13.804255,-18.545331)" />
  <g
     inkscape:groupmode="layer"
     id="layer3"
     inkscape:label="Capa 3"
     style="display:none"
     transform="translate(-13.804255,-18.545331)" />
  <g
     inkscape:groupmode="layer"
     id="g36698"
     inkscape:label="Capa 3 copia"
     style="display:none"
     transform="translate(-13.804255,-18.545331)" />
</svg>
