<?xml version="1.0" encoding="UTF-8" standalone="no"?>
<!-- Created with Inkscape (http://www.inkscape.org/) -->

<svg
   width="33mm"
   height="33mm"
   viewBox="0 0 33 33"
   version="1.1"
   id="svg5"
   inkscape:version="1.1.2 (b8e25be833, 2022-02-05)"
   sodipodi:docname="teppanyaki.svg"
   xmlns:inkscape="http://www.inkscape.org/namespaces/inkscape"
   xmlns:sodipodi="http://sodipodi.sourceforge.net/DTD/sodipodi-0.dtd"
   xmlns="http://www.w3.org/2000/svg"
   xmlns:svg="http://www.w3.org/2000/svg">
  <sodipodi:namedview
     id="namedview7"
     pagecolor="#505050"
     bordercolor="#ffffff"
     borderopacity="1"
     inkscape:pageshadow="0"
     inkscape:pageopacity="0"
     inkscape:pagecheckerboard="1"
     inkscape:document-units="mm"
     showgrid="false"
     inkscape:zoom="1.0053654"
     inkscape:cx="127.3169"
     inkscape:cy="295.91232"
     inkscape:window-width="1920"
     inkscape:window-height="991"
     inkscape:window-x="-9"
     inkscape:window-y="-9"
     inkscape:window-maximized="1"
     inkscape:current-layer="layer1"
     fit-margin-top="0"
     fit-margin-left="0"
     fit-margin-right="0"
     fit-margin-bottom="0" />
  <defs
     id="defs2">
    <inkscape:path-effect
       effect="bspline"
       id="path-effect36735"
       is_visible="true"
       lpeversion="1"
       weight="33.333333"
       steps="2"
       helper_size="0"
       apply_no_weight="true"
       apply_with_weight="true"
       only_selected="false" />
    <inkscape:path-effect
       effect="bspline"
       id="path-effect36613"
       is_visible="true"
       lpeversion="1"
       weight="33.333333"
       steps="2"
       helper_size="0"
       apply_no_weight="true"
       apply_with_weight="true"
       only_selected="false" />
    <inkscape:path-effect
       effect="bspline"
       id="path-effect36735-3"
       is_visible="true"
       lpeversion="1"
       weight="33.333333"
       steps="2"
       helper_size="0"
       apply_no_weight="true"
       apply_with_weight="true"
       only_selected="false" />
  </defs>
  <g
     inkscape:label="Capa 1"
     inkscape:groupmode="layer"
     id="layer1"
     style="display:inline"
     transform="translate(-13.804255,-18.545331)">
    <path
       style="fill:#000000;stroke-width:0.065497"
       d="m 20.413156,50.779315 c -0.664606,-0.02915 -1.356569,-0.0847 -1.537691,-0.123553 -0.802905,-0.172189 -2.071528,-1.172355 -2.636203,-2.078337 -1.069208,-1.715471 -1.053136,-4.193932 0.04195,-6.469164 0.238825,-0.4962 0.917559,-1.587872 1.120283,-1.80186 0.05155,-0.05441 0.263147,-0.29467 0.470226,-0.533924 1.165264,-1.346301 3.224438,-2.551025 5.08522,-2.975117 2.331729,-0.531418 4.97682,8.55e-4 7.23244,1.456133 1.27763,0.824151 2.595738,1.300334 4.760821,1.719887 1.556323,0.301591 1.880455,0.33435 3.536844,0.357472 1.401414,0.01956 1.594878,0.03637 2.161406,0.18778 0.806084,0.21544 1.293559,0.417046 1.899417,0.78558 0.98892,0.601541 1.610158,1.265315 2.102817,2.246813 0.740726,1.475703 0.674485,2.798996 -0.204939,4.094012 -0.607172,0.894094 -2.006244,2.022694 -3.314277,2.673544 l -0.532188,0.264816 -2.578925,0.06932 c -6.988018,0.187742 -14.910816,0.244733 -17.607199,0.12663 z m 21.080463,-2.655939 c 1.452276,-0.806299 2.327544,-1.650285 2.533046,-2.442522 0.06999,-0.26982 0.07035,-0.389756 0.002,-0.653357 -0.299669,-1.155263 -1.876431,-2.551101 -3.576389,-3.166021 -0.32225,-0.116565 -0.55176,-0.132071 -2.161699,-0.14601 -1.858843,-0.01605 -2.605384,-0.08631 -3.914823,-0.368373 -1.509976,-0.325207 -2.34003,-0.654126 -4.749175,-1.881943 -1.282814,-0.653785 -2.138963,-1.04751 -2.572391,-1.18299 -1.888697,-0.590384 -3.795404,-0.365885 -5.663309,0.666774 -0.850909,0.470438 -1.491412,0.967283 -2.228458,1.72866 -1.051079,1.085786 -1.624355,2.071879 -2.051186,3.528288 -0.314454,1.072939 -0.38768,1.501873 -0.360074,2.109158 0.02002,0.44013 0.05391,0.568431 0.222451,0.841632 0.345932,0.560796 1.122289,0.917205 2.405384,1.104273 0.48596,0.07084 2.680579,0.08964 11.143877,0.09526 l 10.538743,0.0066 z M 20.599416,47.181407 c -0.319984,-0.126051 -0.407959,-0.605206 -0.223036,-1.21478 0.05364,-0.176842 0.09785,-0.334531 0.09824,-0.350417 3.96e-4,-0.01595 -0.104524,0.14621 -0.233144,0.360235 -0.435375,0.724459 -0.596271,0.802653 -1.152531,0.560132 -0.327472,-0.142763 -0.651563,-0.469195 -0.773621,-0.779209 -0.180891,-0.459424 0.03238,-1.202151 0.574204,-1.999715 0.31374,-0.461816 1.185812,-1.433838 1.262168,-1.406833 0.09863,0.03485 1.316604,1.050539 2.188669,1.825076 0.993264,0.882214 1.76837,1.701921 1.861269,1.968418 0.05907,0.169464 0.04473,0.203039 -0.150179,0.351708 -0.595628,0.454306 -2.884848,0.908821 -3.452043,0.685385 z m 11.973349,-0.63562 c -0.157997,-0.177098 -0.211696,-0.884284 -0.117654,-1.549444 0.04026,-0.284766 0.0629,-0.528075 0.0503,-0.540676 -0.0126,-0.01253 -0.0992,0.11723 -0.192429,0.288536 -0.2617,0.480836 -0.947758,1.372232 -1.21019,1.572395 l -0.235935,0.179965 -2.593084,0.01595 -2.593082,0.01595 -0.850625,-0.961634 c -0.467844,-0.528911 -1.229344,-1.360325 -1.692223,-1.847608 -0.960961,-1.011618 -1.18257,-1.308424 -1.365907,-1.829359 -0.156215,-0.44387 -0.124087,-0.83864 0.0933,-1.146394 0.628408,-0.889621 1.480367,-0.833617 2.503347,0.164573 0.250051,0.243993 0.46515,0.433113 0.477999,0.420256 0.01285,-0.01282 0.071,-0.402642 0.12922,-0.866215 0.05823,-0.463573 0.126912,-0.867278 0.152644,-0.897132 0.04322,-0.05013 0.691248,0.266507 1.994858,0.974719 0.723702,0.393174 1.422985,0.884398 1.511045,1.061477 0.142658,0.286874 -0.09562,1.233144 -0.537661,2.135204 -0.37456,0.764358 -0.391658,0.779703 1.047898,-0.940516 0.913495,-1.091597 0.841325,-1.036277 1.265263,-0.969799 0.201466,0.03162 0.634939,0.146266 0.963273,0.254827 0.70668,0.233652 1.48423,0.387657 3.085861,0.611197 2.23234,0.311572 3.325177,0.436635 4.360904,0.499067 1.079669,0.06504 1.513644,0.169369 1.633044,0.392472 0.126856,0.237024 -0.38223,0.580044 -1.228941,0.828034 -0.225096,0.0659 -0.409307,0.139971 -0.409356,0.164526 -5.1e-5,0.0245 0.223643,0.09438 0.497097,0.155278 0.485884,0.108095 1.285247,0.104952 1.742252,-0.0066 0.167859,-0.04102 0.181457,-0.02535 0.284616,0.329528 0.186896,0.642902 3.22e-4,1.063262 -0.53524,1.205902 -0.73815,0.196592 -2.760198,0.331815 -5.656656,0.378267 -2.405381,0.03855 -2.458577,0.03665 -2.573926,-0.09267 z m 4.899075,-8.478811 c 1.062829,-0.878283 2.272778,-2.282819 2.561201,-2.973113 0.09701,-0.232181 0.05888,-0.207047 -0.56111,0.369768 -0.365857,0.34039 -0.766325,0.702581 -0.889928,0.804875 l -0.224735,0.185976 -0.0653,-0.171761 c -0.27985,-0.736062 -0.447122,-2.472081 -0.334176,-3.46824 0.04042,-0.356494 0.06427,-0.657374 0.05302,-0.668626 -0.01126,-0.0113 -0.238666,0.350807 -0.505347,0.8046 l -0.484878,0.825081 -0.152917,-0.451192 c -0.210824,-0.622032 -0.399376,-1.601403 -0.502987,-2.612593 -0.04798,-0.468292 -0.09125,-0.748301 -0.09615,-0.622212 -0.01176,0.302627 -0.184886,1.372517 -0.302068,1.866665 -0.05126,0.216143 -0.18641,0.790879 -0.300347,1.277194 -0.113936,0.486314 -0.228831,0.907833 -0.255322,0.936708 -0.02649,0.02887 -0.06708,-0.15109 -0.09022,-0.399926 -0.05021,-0.54022 -0.182333,-0.940858 -0.407739,-1.236382 -0.20331,-0.266554 -0.282144,-0.273618 -0.330939,-0.02962 -0.02065,0.103252 -0.113526,0.269668 -0.206394,0.369825 L 34.206655,33.056096 34.099073,32.6699 c -0.11425,-0.410133 -0.347508,-0.906883 -0.457876,-0.975088 -0.03974,-0.0245 -0.0669,0.04605 -0.06757,0.175673 -0.002,0.374089 -0.187583,1.116446 -0.368626,1.474279 -0.09566,0.189063 -0.326794,0.524363 -0.513633,0.745111 -0.236659,0.279601 -0.365913,0.503625 -0.426095,0.738521 -0.175324,0.684331 -0.217996,0.740231 -0.603498,0.790518 -0.626981,0.08185 -0.641399,0.09002 -0.641399,0.365581 0,0.62865 0.449113,1.550375 1.000513,2.053354 0.269278,0.245645 0.271606,0.251238 0.08703,0.209231 -0.611871,-0.139269 -1.737169,-0.826999 -2.429931,-1.485047 -0.612419,-0.581734 -0.931248,-0.997337 -1.306836,-1.703488 -0.624235,-1.173627 -0.887618,-2.366625 -0.887618,-4.020433 0,-0.551842 0.01801,-1.050282 0.04003,-1.107663 0.02424,-0.06314 0.139472,0.192424 0.292216,0.64823 0.587635,1.753604 1.42149,3.042135 2.374022,3.668506 0.186641,0.122737 0.416845,0.241885 0.511565,0.264778 0.166624,0.04026 0.174856,0.02811 0.253503,-0.372845 0.04471,-0.227965 0.09508,-1.033418 0.111942,-1.789914 0.02628,-1.179591 0.01161,-1.487829 -0.103091,-2.164763 -0.238371,-1.406777 -0.685037,-2.533146 -1.387551,-3.499014 -0.315928,-0.434356 -1.195225,-1.311671 -1.314645,-1.311671 -0.03164,0 -0.05752,-0.02811 -0.05752,-0.06257 0,-0.08451 0.725006,0.193896 1.425314,0.547437 1.643175,0.829553 2.811934,2.103489 3.120634,3.401468 0.106192,0.4465 0.661711,0.665074 0.952158,0.37462 0.232153,-0.232152 0.235747,-0.542907 0.01508,-1.303989 -0.571479,-1.971029 -0.691382,-2.729329 -0.695401,-4.397912 -0.0028,-1.187898 0.01397,-1.41065 0.14599,-1.932164 0.230129,-0.909077 0.65406,-1.718453 1.194192,-2.27999 l 0.452938,-0.470894 -0.129294,0.458484 c -0.481396,1.70702 -0.631241,3.484401 -0.346105,4.105293 0.322141,0.70147 1.235188,0.689943 1.597461,-0.02022 0.16973,-0.332699 0.233255,-1.090638 0.139275,-1.661737 -0.03557,-0.216143 -0.05637,-0.401844 -0.04622,-0.412678 0.01015,-0.01082 0.15648,0.121797 0.325188,0.294736 0.751989,0.770853 1.213824,1.986887 1.213922,3.196312 1.7e-5,0.216143 -0.0445,0.672984 -0.09892,1.015197 -0.219428,1.379809 -0.352485,2.55581 -0.359414,3.176618 -0.01183,1.060024 -0.0012,1.628521 0.02987,1.597452 0.01599,-0.01595 0.07808,-0.33775 0.137996,-0.71501 0.204408,-1.287201 0.565425,-2.283075 1.099796,-3.033779 0.57817,-0.812253 0.821603,-1.508795 0.884804,-2.531712 l 0.04248,-0.687721 0.177661,0.37916 c 0.276343,0.589767 0.629136,1.744906 0.73809,2.416713 0.114002,0.702933 0.128786,1.864064 0.03137,2.464351 -0.06938,0.427529 -0.145602,0.676659 -0.715167,2.337446 -0.355628,1.03697 -0.752899,2.528958 -0.819676,3.07836 -0.03435,0.282696 9.4e-4,0.220226 0.258345,-0.456775 0.597533,-1.571777 1.330975,-2.813818 1.987599,-3.365869 0.65343,-0.549374 0.955836,-1.352986 0.918417,-2.440566 -0.01224,-0.355772 -0.0114,-0.646834 0.0019,-0.646796 0.05403,1.33e-4 0.425543,0.446995 0.631008,0.758955 0.638124,0.968917 0.551815,1.750642 -0.321167,2.908953 -0.433274,0.574878 -0.504596,0.767539 -0.331104,0.894397 0.142964,0.104544 0.539907,0.115027 0.787717,0.02079 0.09728,-0.03703 0.346802,-0.243623 0.554483,-0.459186 l 0.377599,-0.391941 -0.221085,0.594667 c -1.071754,2.882726 -2.623107,4.955935 -4.317952,5.770457 -0.490212,0.23558 -1.323835,0.450964 -1.72506,0.445703 -0.164807,-0.0028 -0.156421,-0.01709 0.153129,-0.272906 z"
       id="path74890" />
  </g>
  <g
     inkscape:groupmode="layer"
     id="layer4"
     inkscape:label="Capa 4"
     transform="translate(-13.804255,-18.545331)"
     style="display:inline" />
  <g
     inkscape:groupmode="layer"
     id="layer2"
     inkscape:label="Capa 2"
     style="display:none"
     transform="translate(-13.804255,-18.545331)" />
  <g
     inkscape:groupmode="layer"
     id="layer3"
     inkscape:label="Capa 3"
     style="display:none"
     transform="translate(-13.804255,-18.545331)" />
  <g
     inkscape:groupmode="layer"
     id="g36698"
     inkscape:label="Capa 3 copia"
     style="display:none"
     transform="translate(-13.804255,-18.545331)" />
</svg>
