<?xml version="1.0" encoding="UTF-8" standalone="no"?>
<!-- Created with Inkscape (http://www.inkscape.org/) -->

<svg
   version="1.1"
   id="svg885"
   width="113.48418"
   height="123.18701"
   viewBox="0 0 113.48418 123.18701"
   sodipodi:docname="logoTeppanyaki.svg"
   inkscape:version="1.1.2 (b8e25be833, 2022-02-05)"
   xmlns:inkscape="http://www.inkscape.org/namespaces/inkscape"
   xmlns:sodipodi="http://sodipodi.sourceforge.net/DTD/sodipodi-0.dtd"
   xmlns:xlink="http://www.w3.org/1999/xlink"
   xmlns="http://www.w3.org/2000/svg"
   xmlns:svg="http://www.w3.org/2000/svg">
  <defs
     id="defs889">
    <linearGradient
       inkscape:collect="always"
       id="linearGradient63861">
      <stop
         style="stop-color:#f7bb30;stop-opacity:1"
         offset="0"
         id="stop63857" />
      <stop
         style="stop-color:#f26529;stop-opacity:1"
         offset="1"
         id="stop63859" />
    </linearGradient>
    <linearGradient
       inkscape:collect="always"
       xlink:href="#linearGradient63861"
       id="linearGradient63863"
       x1="36.858196"
       y1="30.687696"
       x2="87.235489"
       y2="81.064987"
       gradientUnits="userSpaceOnUse" />
  </defs>
  <sodipodi:namedview
     id="namedview887"
     pagecolor="#505050"
     bordercolor="#ffffff"
     borderopacity="1"
     inkscape:pageshadow="0"
     inkscape:pageopacity="0"
     inkscape:pagecheckerboard="1"
     showgrid="false"
     fit-margin-top="0"
     fit-margin-left="0"
     fit-margin-right="0"
     fit-margin-bottom="0"
     inkscape:zoom="4.3682929"
     inkscape:cx="58.833051"
     inkscape:cy="79.321604"
     inkscape:window-width="1920"
     inkscape:window-height="991"
     inkscape:window-x="-9"
     inkscape:window-y="-9"
     inkscape:window-maximized="1"
     inkscape:current-layer="g119159" />
  <g
     inkscape:groupmode="layer"
     inkscape:label="Image copia"
     id="g23948"
     style="display:inline"
     transform="translate(0.82729548,-0.32510764)">
    <path
       style="fill:url(#linearGradient63863);fill-opacity:1;stroke:none;stroke-width:0.188976;stroke-miterlimit:4;stroke-dasharray:none;stroke-opacity:1"
       d="M 57.25001,80.319069 C 53.554083,79.521741 51.029344,78.451302 47.840973,76.329837 42.762029,72.950422 39.649696,68.494038 37.886861,62.077066 37.029552,58.956336 37.112349,52.211005 38.049837,48.8 c 1.383101,-5.032365 4.410464,-9.809354 8.277411,-13.061242 2.274205,-1.91248 7.470445,-4.471949 10.555075,-5.199025 2.782656,-0.655898 8.696858,-0.496687 11.757677,0.316518 5.028755,1.33605 10.988342,5.421883 14.164643,9.711138 5.675795,7.664557 6.435863,15.820825 2.298256,24.662537 C 81.313398,73.32776 75.374624,77.44 67.469462,77.44 62.029597,77.44 58.756557,76.17639 54.486973,72.427904 51.229594,69.568086 49.430586,66.615245 48.280022,62.24 c -1.803046,-6.856448 0.914516,-13.543539 6.888,-16.94927 4.248234,-2.422093 9.597389,-2.374916 14.019431,0.123648 2.197251,1.2415 3.434128,2.590166 4.805171,5.239475 0.901702,1.742384 1.02905,2.300339 1.037613,4.546147 0.01136,2.978611 -0.73121,5.60199 -2.211533,7.813011 -1.450909,2.167088 -4.407062,3.60256 -7.458301,3.621661 -1.868563,0.01171 -2.620809,-0.154925 -4.347648,-0.963011 -2.802883,-1.311626 -3.24992,-2.143159 -3.251539,-6.048195 -0.0013,-3.27304 0.350611,-4.068676 2.428208,-5.489056 1.280672,-0.875549 2.93999,-0.76689 4.676336,0.306233 1.361002,0.841143 1.583293,1.824848 0.937363,4.148125 -0.64968,2.336774 -0.652336,2.733174 -0.01994,2.97585 1.312797,0.503766 3.019139,-1.96025 3.013693,-4.351869 -0.0043,-1.879293 -1.300416,-4.561869 -2.580189,-5.340147 -2.266109,-1.378103 -6.354377,-1.134416 -8.506435,0.50704 -2.696381,2.05663 -3.696166,7.701654 -2.001398,11.300358 1.716185,3.644179 4.149068,5.317773 8.227417,5.659686 6.156707,0.516157 11.231994,-2.438035 13.094967,-7.622236 0.77058,-2.14433 0.895277,-6.44282 0.258692,-8.91745 -2.00304,-7.786534 -7.006964,-11.84 -14.616234,-11.84 -2.690317,0 -6.60137,0.704061 -7.922253,1.426154 -0.457289,0.249987 -1.407437,0.761065 -2.111437,1.135724 -1.383385,0.736228 -4.404707,4.046074 -5.291027,5.796304 -0.301312,0.594999 -0.941529,2.230733 -1.42271,3.63496 -0.826871,2.413063 -0.866451,2.790544 -0.721395,6.88 0.142995,4.031316 0.230384,4.515796 1.279376,7.09298 1.34518,3.304864 3.110249,5.990163 5.234851,7.96408 2.239379,2.080553 3.62584,2.841606 7.283209,3.997881 2.194701,0.693853 3.271028,1.192451 3.341159,1.547757 0.138646,0.702394 -1.466944,0.665584 -5.093453,-0.116771 z"
       id="path23946"
       sodipodi:nodetypes="sssssssssssssssssscsssscsssssssssssssssssss" />
  </g>
  <g
     inkscape:groupmode="layer"
     inkscape:label="Image copia copia"
     id="g23702"
     style="display:inline"
     transform="translate(0.82729548,-0.32510764)">
    <path
       style="fill:#f27229;fill-opacity:1;stroke-width:0.188976;stroke-miterlimit:4;stroke-dasharray:none"
       d="M 32.363866,17.821285 C 29.404127,16.696815 27.52,13.890358 27.52,10.60622 c 0,-5.466101 4.655549,-8.2773636 16.218938,-9.79384013 4.92648,-0.64608152 14.385577,-0.65048033 18.056108,-0.008397 3.986615,0.69737523 9.150634,2.21089563 13.218916,3.87432623 3.59047,1.4680637 11.264822,5.3198992 13.103545,6.5768039 4.099511,2.802319 4.643616,5.643258 0.607299,3.170898 -3.229593,-1.978219 -11.946147,-4.211394 -18.923024,-4.8480651 -5.019318,-0.4580352 -11.027641,0.03008 -16.092268,1.3073311 -4.682794,1.180958 -5.863498,1.649598 -11.721354,4.652396 -3.999594,2.050233 -5.042272,2.452196 -6.646003,2.562102 -1.096541,0.07515 -2.35793,-0.0428 -2.978291,-0.27849 z"
       id="path23700"
       sodipodi:nodetypes="ssssssssssss" />
  </g>
  <g
     inkscape:groupmode="layer"
     id="layer1"
     inkscape:label="Image 1"
     style="display:inline"
     transform="translate(0.82729548,-0.32510764)">
    <path
       style="fill:#7d7e80;fill-opacity:0.972549;stroke-width:0.188976;stroke-miterlimit:4;stroke-dasharray:none"
       d="M 43.866213,107.58083 C 35.773641,104.61768 28.917998,100.45343 20.399852,91.876594 11.881706,83.299758 9.204707,77.556876 6.973402,66.719992 6.103123,62.493265 5.822086,52.597778 6.530888,47.77469 c 0.942064,-6.41034 3.516178,-14.026551 6.978009,-20.646327 3.18135,-6.083435 6.036808,-8.576038 9.807641,-8.561343 3.029393,0.0118 5.552466,1.477759 6.829094,3.967835 1.319793,2.574272 0.392244,5.784401 -3.335903,11.545137 -3.072031,4.746906 -5.482303,10.292118 -6.537256,15.04 -0.801416,3.606819 -0.940556,10.977664 -0.281616,14.91841 2.111217,12.625996 11.112413,24.310105 23.36914,30.334588 7.155802,3.51726 12.600213,4.827 20.065083,4.827 11.60188,0 20.55022,-3.83827 29.05492,-12.462721 5.63393,-5.713267 9.82432,-13.782167 11.35908,-21.872765 0.62907,-3.316173 0.63478,-11.423389 0.0106,-14.982595 C 102.24808,40.750072 96.7005,31.689305 89.79816,26.931858 84.94346,23.58575 79.4603,21.071788 73.96122,19.670818 69.83131,18.618662 62.02456,18.540902 58.1652,19.513479 48.302467,21.998934 40.106464,28.7447 35.094176,38.50221 c -3.231337,6.290502 -4.622309,11.871443 -4.959247,19.897782 0,0 -0.215052,4.221543 -0.376805,4.614148 -0.192972,0.468384 -0.369061,0.795298 -0.698829,0.728427 -0.917007,-0.185954 -0.7527,-0.345618 -1.000711,-2.622575 -0.567555,-5.210656 0.313321,-13.075411 2.056317,-18.359488 1.063237,-3.223315 4.63235,-10.073878 6.932245,-13.305767 4.217715,-5.926869 8.295942,-9.159269 15.085814,-11.957003 10.05834,-4.144489 19.90171,-4.102463 31.91265,0.136251 6.01043,2.121109 12.98502,6.306268 16.33067,9.799358 7.89128,8.239049 11.62522,18.172003 11.6227,30.918447 -0.003,13.067476 -4.28924,25.122308 -12.39415,34.85451 C 96.07988,97.43898 90.84438,101.23506 84,104.52082 l -2.88,1.38259 c 0,0 -22.09706,7.22716 -37.253787,1.67742 z"
       id="path6288-4"
       sodipodi:nodetypes="szsssssssssssscssssssasssssscsscs" />
  </g>
  <g
     inkscape:groupmode="layer"
     id="layer3"
     inkscape:label="background 1"
     style="display:inline"
     transform="translate(0.82729548,-0.32510764)">
    <path
       style="display:inline;fill:#000000;fill-opacity:1;stroke-width:0.32"
       d="m 57.122672,88.693289 c -0.749526,-0.94362 -0.823945,-0.97334 -0.837635,-0.33451 -0.01773,0.8273 -0.624985,1.30526 -0.963158,0.75808 -0.228176,-0.36919 0.200285,-3.53327 0.522521,-3.8587 0.08687,-0.0877 0.350362,0.10366 0.585546,0.4253 0.349334,0.47774 0.550781,0.51887 1.100451,0.2247 0.681552,-0.36476 1.299613,-0.21345 1.299613,0.31817 0,0.15999 -0.366758,0.48306 -0.815021,0.71792 l -0.815017,0.42703 0.655017,0.59279 c 0.360263,0.32603 0.655021,0.77797 0.655021,1.0043 0,0.84518 -0.590496,0.7281 -1.387338,-0.27508 z m 2.667338,-1.06229 c 0,-1.54244 0.107133,-2.0713 0.4,-1.97461 0.247674,0.0818 0.436282,0.88403 0.49527,2.10667 0.07768,1.60996 0.0038,1.9746 -0.4,1.9746 -0.396873,0 -0.49527,-0.41854 -0.49527,-2.10666 z m 6.746353,0.87591 c -0.31271,-0.58431 -0.24892,-0.61528 0.93907,-0.45594 0.83596,0.11213 1.27458,0.0463 1.27458,-0.19117 0,-0.19918 -0.396,-0.36434 -0.88,-0.36704 -1.23477,-0.007 -1.75377,-0.42286 -1.628,-1.30485 0.19906,-1.39594 2.6399,-1.65454 3.08255,-0.32658 0.0978,0.29338 -0.17046,0.34108 -1.02095,0.18152 -0.72859,-0.13668 -1.1536,-0.0929 -1.1536,0.11892 0,0.18444 0.45347,0.38046 1.00772,0.43562 2.13324,0.21227 2.01668,2.25396 -0.1392,2.43834 -0.87449,0.0748 -1.2263,-0.0507 -1.48217,-0.52882 z m -13.466353,-0.0596 c 0,-0.51973 -1.380755,-0.92377 -1.853562,-0.5424 -0.2883,0.23255 -0.519718,0.22743 -0.764048,-0.0169 -0.253984,-0.25398 0.03611,-0.78879 1.053562,-1.94234 1.678454,-1.90296 2.075635,-1.73854 2.396166,0.99195 0.185348,1.5789 0.141632,1.84 -0.30806,1.84 -0.288231,0 -0.524058,-0.14864 -0.524058,-0.33031 z m 0,-1.90969 c 0,-0.176 -0.135501,-0.32 -0.301114,-0.32 -0.165612,0 -0.390112,0.144 -0.498886,0.32 -0.108774,0.176 0.02672,0.32 0.301114,0.32 0.274387,0 0.498886,-0.144 0.498886,-0.32 z m 18.338963,1.39439 c -0.45147,-0.18375 -1.53278,-3.26724 -1.24623,-3.55379 0.30418,-0.30418 0.94895,0.47475 1.3356,1.61351 0.19158,0.56424 0.58758,1.07245 0.88,1.12935 0.65784,0.12802 0.68478,-0.55756 0.0789,-2.00764 -0.43918,-1.05109 -0.3829,-1.45582 0.20242,-1.45582 0.35605,0 1.21034,2.00939 1.21034,2.84686 0,1.18484 -1.26066,1.91608 -2.46104,1.42753 z m -23.963456,-3.31345 c 0.02467,-2.25424 0.360266,-2.71304 0.980375,-1.34024 0.351686,0.77856 0.808252,0.88717 1.369628,0.32579 0.284679,-0.28468 0.426423,-0.23562 0.595994,0.20627 0.225594,0.58789 -0.564912,1.44724 -1.331299,1.44724 -0.202112,0 -0.531501,0.36 -0.731981,0.8 -0.620582,1.36203 -0.908227,0.89309 -0.882717,-1.43906 z m 27.768496,1.53506 c -0.61968,-0.61968 -0.44993,-0.83346 0.6219,-0.78318 0.57949,0.0272 1.06851,-0.1312 1.1536,-0.37362 0.11081,-0.3157 -0.12046,-0.37395 -0.9259,-0.23322 -1.40847,0.24609 -2.01745,-0.16928 -1.75885,-1.19966 0.24422,-0.973 1.96319,-1.71918 2.6491,-1.14993 0.52331,0.43431 0.22473,1.03375 -0.39622,0.79547 -0.55989,-0.21485 -1.40763,0.0926 -1.40763,0.5105 0,0.18791 0.50404,0.22874 1.25587,0.10172 1.09192,-0.18448 1.30641,-0.11773 1.64308,0.51133 0.34031,0.63588 0.28293,0.81321 -0.47372,1.46405 -0.95095,0.81798 -1.77532,0.94245 -2.36123,0.35654 z m -31.223737,-1.38646 c -0.110148,-0.28704 -0.200266,-0.88606 -0.200266,-1.33116 v -0.80928 l -0.617286,0.75545 c -0.413373,0.5059 -0.724503,0.64974 -0.94186,0.43545 -0.218617,-0.21554 0.02198,-0.86885 0.737021,-2.00131 1.195443,-1.8933 1.65953,-1.79096 1.838282,0.40537 l 0.103843,1.27594 0.587232,-1.07677 c 0.443533,-0.81328 0.677542,-0.98646 0.956298,-0.7077 0.278755,0.27875 0.174211,0.73769 -0.427232,1.8755 -0.830653,1.57143 -1.693581,2.07092 -2.036032,1.17851 z m 34.559517,-1.73669 c -1.10224,-1.53423 -1.12637,-2.14553 -0.0687,-1.73965 0.27988,0.1074 0.50888,0.32509 0.50888,0.48375 0,0.15866 0.28223,0.11222 0.62718,-0.10321 0.55468,-0.3464 0.57309,-0.45144 0.1593,-0.90868 -0.48698,-0.53811 -0.33016,-0.94506 0.36418,-0.94506 0.61355,0 2.47084,2.9065 2.09649,3.28084 -0.20198,0.20199 -0.51152,0.0779 -0.88051,-0.35308 -0.76362,-0.89185 -1.45111,-0.3501 -1.19306,0.94015 0.27763,1.38818 -0.32022,1.1455 -1.6138,-0.65506 z M 40.27001,82.092339 c 0,-0.66521 -0.953482,-1.39132 -1.627037,-1.23904 -0.205129,0.0464 -0.43432,-0.0817 -0.509315,-0.28473 -0.174992,-0.47365 3.430771,-2.14453 3.809846,-1.76546 0.456701,0.4567 -0.506076,3.71661 -1.133331,3.83741 -0.364227,0.0701 -0.540163,-0.1084 -0.540163,-0.54818 z m 0.64,-1.81361 c 0,-0.27438 -0.146349,-0.40843 -0.325219,-0.29788 -0.178871,0.11054 -0.242375,0.33504 -0.141114,0.49888 0.274314,0.44386 0.466333,0.36109 0.466333,-0.201 z m 41.176713,0.007 c -1.05572,-1.23464 -1.14764,-1.45964 -0.67098,-1.64255 0.39982,-0.15342 0.88429,0.17736 1.75463,1.19803 0.66127,0.77549 1.13471,1.51937 1.05209,1.65306 -0.32392,0.52411 -0.9638,0.16203 -2.13574,-1.20854 z m 1.72562,-1.24564 -1.39093,-1.41725 0.9243,-0.81264 c 1.21521,-1.06842 1.85455,-1.03814 2.6843,0.12713 0.37596,0.528 0.90177,0.96 1.16845,0.96 0.26669,0 0.42121,0.18 0.34339,0.4 -0.0817,0.23096 -0.56628,0.36568 -1.14666,0.31878 -0.99905,-0.0807 -1.42984,0.581 -0.67996,1.04445 0.33785,0.20881 0.13309,0.79678 -0.27748,0.79678 -0.12897,0 -0.86041,-0.63777 -1.62541,-1.41725 z m 1.1096,-2.03749 c -0.28158,-0.28158 -0.81576,0.62965 -0.58654,1.00055 0.10075,0.163 0.32044,0.0511 0.48822,-0.24873 0.16778,-0.2998 0.21202,-0.63812 0.0983,-0.75182 z m -48.07473,1.05513 c -0.376861,-0.26396 -0.912902,-0.39256 -1.191203,-0.28577 -0.997466,0.38277 -0.464944,-0.98302 0.811216,-2.08056 l 1.263043,-1.08626 0.789869,0.74204 c 0.969341,0.91065 1.057453,2.38476 0.170909,2.85923 -0.81721,0.43735 -1.031866,0.42004 -1.843834,-0.14868 z m 1.460839,-0.90951 c 0.422758,-0.50939 0.161484,-0.85056 -0.651376,-0.85056 -0.573306,0 -0.798004,0.642 -0.373332,1.06667 0.323239,0.32324 0.630944,0.25834 1.024708,-0.21611 z m 48.417741,-1.27118 c -1.55494,-1.65515 -0.28385,-3.80025 1.81773,-3.06763 1.66737,0.58125 2.13174,2.043 1.00649,3.16825 -0.8495,0.8495 -1.9691,0.80961 -2.82422,-0.10062 z m 2.1987,-0.71683 c 0.34406,-0.41457 0.30705,-0.60324 -0.22217,-1.13246 -0.73626,-0.73626 -1.71231,-0.52635 -1.71231,0.36825 0,0.32443 0.252,0.73664 0.56,0.91603 0.75688,0.44084 0.89531,0.42555 1.37448,-0.15182 z m -54.745891,-0.47395 c -0.358275,-0.35828 -0.883334,-0.61028 -1.166803,-0.56 -1.098288,0.19478 -0.697821,-0.68015 0.805725,-1.76034 l 1.574393,-1.13109 0.679047,0.91846 c 0.87198,1.17941 0.861433,2.06033 -0.03216,2.68623 -0.917146,0.64239 -1.077783,0.62916 -1.860205,-0.15326 z m 1.611408,-0.90942 c 0,-0.15444 -0.196893,-0.44422 -0.437542,-0.64394 -0.330538,-0.27432 -0.525508,-0.25714 -0.797226,0.0703 -0.197824,0.23836 -0.264928,0.52814 -0.149123,0.64394 0.31055,0.31055 1.383891,0.25606 1.383891,-0.0703 z m 53.920003,-1.48742 c -0.704,-0.43355 -1.424,-0.84306 -1.6,-0.91002 -0.19559,-0.0744 -0.16575,-0.28532 0.0767,-0.54249 0.32604,-0.34576 0.6292,-0.2901 1.70103,0.3123 0.71736,0.40318 1.33082,0.68251 1.36325,0.62075 0.75334,-1.43474 1.50013,-2.02257 1.49777,-1.17896 -0.002,0.54696 -1.1919,2.50983 -1.5141,2.49668 -0.13459,-0.005 -0.82071,-0.36471 -1.52471,-0.79826 z m -58.698295,-0.57466 c -0.166227,-0.43721 -0.455113,-0.88941 -0.641969,-1.0049 -0.644893,-0.39856 -0.333352,-0.76759 1.474821,-1.74694 0.99801,-0.54054 1.82601,-0.94736 1.84,-0.90403 0.01398,0.0433 0.27744,0.53299 0.58544,1.08815 0.308,0.55515 0.56,1.16715 0.56,1.36 0,0.61216 -0.908352,0.37747 -1.12,-0.28938 -0.111722,-0.352 -0.337424,-0.64 -0.501565,-0.64 -0.414582,0 -0.37279,0.43765 0.08557,0.896 0.291325,0.29133 0.29441,0.47359 0.01277,0.75523 -0.281635,0.28163 -0.532848,0.1851 -1.040915,-0.4 l -0.669681,-0.77123 0.213774,0.8 c 0.332998,1.24619 0.326217,1.35041 -0.09798,1.50601 -0.218916,0.0803 -0.534034,-0.2117 -0.70026,-0.64891 z m 60.218295,-3.10658 c -2.35477,-1.04626 -1.52297,-1.6146 1.1389,-0.77817 0.59011,0.18543 0.77484,0.0948 0.91732,-0.45008 0.103,-0.39385 0.43501,-0.68227 0.78539,-0.68227 0.57339,0 0.58018,0.0641 0.12268,1.15908 -0.26636,0.6375 -0.48429,1.2135 -0.48429,1.28 0,0.28982 -1.22642,0.0284 -2.48,-0.52856 z m -62.26667,-1.16385 c -0.447352,-0.44735 -0.170782,-0.73373 1.066667,-1.10447 1.019749,-0.30553 1.28,-0.53586 1.28,-1.132847 0,-0.41214 0.141073,-0.74935 0.313496,-0.74935 0.428837,0 1.677202,2.506727 1.43972,2.890977 -0.293248,0.47449 -0.793216,0.36672 -0.793216,-0.17098 0,-0.264 -0.07662,-0.48 -0.170278,-0.48 -0.09365,0 -0.687239,0.216 -1.31908,0.48 -1.289389,0.53875 -1.512496,0.57148 -1.817309,0.26667 z M 42.073818,46.646123 c -0.611802,-0.843047 -1.04344,-1.644333 -0.9592,-1.780637 0.294944,-0.477229 3.534912,-0.27447 3.968835,0.248371 0.347552,0.418778 0.305392,0.524026 -0.270221,0.674554 -0.682166,0.178387 -1.125676,0.975977 -0.954268,1.716112 0.234112,1.010899 -0.783805,0.521427 -1.785146,-0.8584 z m 38.196195,0.501581 c 0,-0.720839 -0.17399,-1.035456 -0.64,-1.157322 -0.86071,-0.225082 -0.81243,-0.931869 0.08,-1.171027 1.07178,-0.287229 3.05772,-0.241338 3.25334,0.07518 0.24986,0.404285 -1.71396,3.24313 -2.2435,3.24313 -0.28952,0 -0.44984,-0.352822 -0.44984,-0.989958 z m -2.00445,-2.401152 c -0.11244,-0.112445 -0.11516,-0.655447 -0.006,-1.206669 0.18154,-0.916989 0.15185,-0.963914 -0.34912,-0.551783 -0.43169,0.35514 -0.62929,0.36754 -0.93397,0.05861 -0.30308,-0.307306 -0.0765,-0.657136 1.0505,-1.62178 1.46389,-1.25303 2.405533,-1.228513 1.82554,-0.30888 -0.594578,0.942758 -0.562122,0.938165 0.53212,0.683888 0.978269,-0.227328 0.85861,1.037719 -0.17521,1.157108 -0.65706,0.07588 -0.88412,0.2971 -0.96,0.935321 -0.0982,0.826112 -0.58728,1.25073 -0.98383,0.854183 z M 43.87001,43.652792 c -0.572,-0.520359 -1.04,-1.092138 -1.04,-1.270618 0,-0.566054 1.050982,-0.350598 1.821709,0.373459 0.715731,0.672394 0.758765,0.676352 1.174349,0.108007 0.273504,-0.374039 0.632329,-0.512858 0.9804,-0.379293 0.504115,0.193449 0.493036,0.289273 -0.135517,1.171993 -0.854631,1.200218 -1.478583,1.199428 -2.800941,-0.0036 z m 2.361357,-2.593655 c -0.830423,-0.903177 -1.108659,-1.422173 -0.883264,-1.647568 0.659286,-0.659286 3.271222,1.822003 2.770605,2.632019 -0.337079,0.545405 -0.613101,0.401431 -1.887341,-0.984451 z m 29.779596,1.11281 c -0.12153,-0.121523 -0.22095,-0.484951 -0.22095,-0.807619 0,-0.556797 -0.15114,-0.641319 -1.28,-0.715828 -0.97347,-0.06425 -0.43778,-1.011564 0.96,-1.697648 1.77676,-0.872105 2.24,-0.901254 2.24,-0.14094 0,1.460918 -1.20861,3.852476 -1.69905,3.362035 z M 47.90336,40.057662 c -0.401628,-0.572 -0.843433,-1.088 -0.981792,-1.146666 -0.138358,-0.05867 -0.251558,-0.310668 -0.251558,-0.56 0,-0.6003 1.272989,-0.58264 2.147357,0.02979 0.674598,0.472506 0.683401,0.460954 0.400473,-0.525558 -0.563401,-1.964464 0.50192,-2.139648 1.729645,-0.284429 1.010487,1.526947 0.924027,2.365527 0.202525,1.834141 -1.269491,-0.934979 -1.267256,-0.900099 -0.64,0.464243 0.202725,0.440946 -0.259918,0.777812 -0.637987,0.429117 -1.177712,-1.08621 -1.180113,-1.097814 -0.445763,0.298435 0.464332,0.882852 -0.770916,0.531907 -1.5229,-0.539075 z m 24.196113,-0.96247 c -0.12678,-0.324372 3.2e-4,-0.898532 0.30034,-1.356356 0.42439,-0.647708 0.44783,-0.909715 0.1273,-1.422976 -0.59061,-0.945708 -0.11676,-1.118275 1.24464,-0.453273 1.33574,0.652464 1.97059,1.946201 0.76767,1.564409 -0.36818,-0.116854 -0.67013,-0.09476 -0.671,0.0491 -9.6e-4,0.143863 -0.34979,0.693565 -0.77536,1.221565 -0.67636,0.839149 -0.80144,0.889194 -0.99359,0.397531 z M 51.509546,37.207457 c -0.377187,-0.907609 -0.648387,-1.663609 -0.602666,-1.68 0.04572,-0.01638 0.551424,-0.290112 1.123786,-0.608275 1.070384,-0.595002 1.843448,-0.470681 1.566166,0.251856 -0.05192,0.135298 -0.988005,0.560655 -0.92291,0.730193 0.04304,0.112088 1.059008,-0.02432 1.141093,0.05898 0.287394,0.291649 0.225497,0.492557 -0.265005,0.860093 -0.611066,0.457879 -0.600214,0.469802 0.24,0.263767 0.749981,-0.183908 0.88,-0.116106 0.88,0.458899 0,0.454518 -0.202688,0.674691 -0.621114,0.674691 -0.341612,0 -0.710112,0.144 -0.818886,0.32 -0.442845,0.716541 -1.072048,0.230064 -1.720464,-1.330204 z m 3.652042,-0.0032 c -1.239373,-3.554313 -1.14049,-4.066729 0.54439,-2.821043 L 56.681104,35.104155 56.46946,34.2609 c -0.152976,-0.609491 -0.08776,-0.843238 0.23527,-0.843238 0.682995,0 1.115501,0.695987 1.352144,2.175875 0.185555,1.160397 0.13624,1.344125 -0.360768,1.344125 -0.316637,0 -0.841728,-0.240752 -1.16687,-0.535002 -0.559424,-0.506268 -0.586554,-0.495276 -0.505197,0.204727 0.09317,0.801696 -0.619133,1.294672 -0.862451,0.596886 z m 11.676135,-0.196022 c -0.58727,-0.475539 -0.66673,-0.763815 -0.48198,-1.748599 0.28742,-1.532105 0.89782,-2.042873 1.98024,-1.65704 0.97214,0.346525 1.74153,1.421255 1.168,1.631536 -0.20132,0.07381 -0.28689,0.436829 -0.19017,0.806711 0.11406,0.436141 -0.0318,0.824397 -0.41513,1.104656 -0.78491,0.573942 -1.21831,0.545075 -2.06096,-0.137264 z m 0.77395,-1.164426 c -0.67026,-0.490105 -2.19571,-1.25073 -0.63482,0.112547 0.166199,0.145158 0.44595,0.34129 0.7332,0.34129 0.43679,0 0.42069,-0.07428 -0.0984,-0.453837 z m 0.81834,-1.146147 c -0.25381,-0.156861 -0.53347,-0.2132 -0.62147,-0.1252 -0.088,0.088 0.0477,0.288339 0.30147,0.4452 0.2538,0.156861 1.140482,0.496477 1.228482,0.408477 0.088,-0.088 -0.654722,-0.571616 -0.908482,-0.728477 z m -8.746669,1.706666 C 59.56601,36.286996 59.47001,35.72779 59.47001,35.161649 c 0,-0.79599 -0.161974,-1.071699 -0.71448,-1.216185 -0.553562,-0.144759 -0.628461,-0.272861 -0.332547,-0.568775 0.519353,-0.519353 3.023638,-0.549885 3.201273,-0.03903 0.0765,0.22 -0.08891,0.4 -0.36758,0.4 -0.387159,0 -0.506666,0.339648 -0.506666,1.44 0,1.3604 -0.433923,1.859411 -1.066666,1.226666 z m 3.050666,-0.170666 c -0.547718,-0.547718 -0.4748,-2.359485 0.118858,-2.953142 1.517417,-1.517418 3.747015,0.735545 2.544368,2.571027 -0.549661,0.838886 -1.998567,1.046774 -2.663226,0.382115 z m 1.740278,-1.056 c 0.101309,-0.264 0.0915,-0.721565 -0.02179,-1.016813 -0.188825,-0.49208 -0.248659,-0.494147 -0.717993,-0.0248 -0.527776,0.527754 -0.387008,1.521613 0.215507,1.521613 0.187046,0 0.422973,-0.216 0.524278,-0.48 z"
       id="path117739"
       sodipodi:nodetypes="ssscsssscsssscsssssscsssscsssssssssssssssssssssssssssssssssssssssssssscsssscsssscsssssscsccsccscssssssssssscsssscssscssccscscssssssssssssssssscscsssssscsscscscccccscssssssssscsssscssssscssssssssssssssssssssssccsscsssccccsssssccssssssssssssssssssssssscssscsssssssssssssssscssssssssssssscscsscccscscssssssssssssssscsss" />
  </g>
  <g
     inkscape:groupmode="layer"
     id="layer4"
     inkscape:label="palillos"
     style="display:inline"
     transform="translate(0.82729548,-0.32510764)">
    <path
       style="fill:#ab7f57;fill-opacity:1;stroke-width:0.327153"
       d="m 86.975398,117.94972 c 0,0 -39.585677,-9.62782 -46.619249,-11.37924 -3.86858,-0.96331 -7.689337,-2.03559 -8.490569,-2.38283 -1.540052,-0.66744 -5.584972,-1.7549 -20.462435,-5.501259 -7.8399197,-1.974201 -9.2663697,-2.427119 -9.8963697,-3.142223 -0.91578996,-1.039508 -0.94409996,-2.415316 -0.069,-3.354584 1.18357,-1.270404 3.44934,-0.977979 12.0919067,1.560598 4.477218,1.315091 11.458522,2.847865 14.067563,3.596426 2.609043,0.748562 5.479807,1.593127 6.379477,1.876812 0.89967,0.28368 2.077418,0.63073 2.617221,0.77121 1.532144,0.39873 45.546734,13.63606 45.546734,13.63606 17.945973,5.13313 27.364323,7.92968 27.642343,8.20771 0.46866,0.46865 -0.0207,1.70004 -0.66503,1.67329 -0.30278,-0.0125 -10.266935,-2.51546 -22.142573,-5.56197 z"
       id="path119135"
       sodipodi:nodetypes="ssssssssssssss" />
  </g>
  <g
     inkscape:groupmode="layer"
     id="g119159"
     inkscape:label="palillos copia"
     style="display:inline"
     transform="translate(0.82729548,-0.32510764)">
    <path
       style="fill:#cb956c;fill-opacity:1;stroke-width:0.327153"
       d="m 57.531662,112.72672 c -4.318415,0.17386 -13.519583,0.48431 -20.44704,0.68986 -6.927457,0.20556 -17.895249,0.55591 -24.372871,0.77856 -8.6203457,0.29631 -11.99673566,0.30804 -12.59537567,0.0438 -0.721,-0.3183 -0.82976,-0.59214 -0.91816,-2.31198 -0.08,-1.55695 0.0152,-2.03534 0.47147,-2.36899 0.45009,-0.32912 5.06922997,-0.41808 21.70870867,-0.41808 12.868906,0 44.201377,-0.84865 51.447652,-0.74394 4.273432,0.0617 7.769839,0.21762 7.769796,0.34633 -4.5e-5,0.12872 7.21367,0.1945 16.030482,0.14617 l 16.030556,-0.0879 v 0.95878 c 0,0.85739 -0.12974,0.97808 -1.22682,1.14123 -0.67476,0.10035 -7.48361,0.35074 -15.130813,0.55641 -7.647192,0.20568 -38.767585,1.26978 -38.767585,1.26978 z"
       id="path119157"
       sodipodi:nodetypes="sssssssssscssss" />
  </g>
</svg>
